<svg xmlns="http://www.w3.org/2000/svg" viewBox="0 0 16 16"><path d="M3.468 1.904C5.302 3.281 7.276 6.074 8 7.572c.725-1.498 2.698-4.29 4.532-5.668C13.856.911 16 .142 16 2.59c0 .488-.28 4.104-.445 4.69-.57 2.042-2.652 2.562-4.503 2.247 3.236.55 4.06 2.375 2.281 4.2-3.376 3.464-4.852-.87-5.23-1.98-.07-.204-.103-.299-.103-.218 0-.081-.033.014-.102.218-.379 1.11-1.855 5.444-5.231 1.98-1.778-1.825-.955-3.649 2.28-4.2-1.85.315-3.932-.205-4.502-2.246C.28 6.693 0 3.077 0 2.589 0 .142 2.145.91 3.468 1.904Z" /></svg>
