<?xml version="1.0" encoding="UTF-8" standalone="no"?>
<svg
   viewBox="0 0 16 16"
   id="mastodon"
   version="1.1"
   sodipodi:docname="mastodon.svg"
   inkscape:version="1.4 (e7c3feb100, 2024-10-09)"
   xmlns:inkscape="http://www.inkscape.org/namespaces/inkscape"
   xmlns:sodipodi="http://sodipodi.sourceforge.net/DTD/sodipodi-0.dtd"
   xmlns="http://www.w3.org/2000/svg"
   xmlns:svg="http://www.w3.org/2000/svg">
  <defs
     id="defs1" />
  <sodipodi:namedview
     id="namedview1"
     pagecolor="#ffffff"
     bordercolor="#000000"
     borderopacity="0.25"
     inkscape:showpageshadow="2"
     inkscape:pageopacity="0.0"
     inkscape:pagecheckerboard="0"
     inkscape:deskcolor="#d1d1d1"
     inkscape:zoom="26.185048"
     inkscape:cx="-4.1244912"
     inkscape:cy="9.6047179"
     inkscape:window-width="5120"
     inkscape:window-height="1371"
     inkscape:window-x="0"
     inkscape:window-y="0"
     inkscape:window-maximized="1"
     inkscape:current-layer="mastodon" />
  <path
     d="M 8.3945523,0 C 6.4765528,0.016 4.6325528,0.223 3.5565528,0.717 c 0,0 -2.1319996,0.954 -2.1319996,4.208 0,0.745 -0.015,1.636 0.009,2.58 0.077,3.183 0.5829996,6.319 3.5249996,7.098 1.357,0.359 2.522,0.434 3.4599995,0.382 1.7000007,-0.094 2.6560077,-0.607 2.6560077,-0.607 l -0.057,-1.234 c 0,0 -1.2150077,0.383 -2.5800077,0.337 C 7.0845528,13.434 5.6565528,13.335 5.4375528,11.674 a 3.406,3.406 0 0 1 -0.03,-0.466 c 0,0 1.328,0.325 3.0099995,0.402 1.03,0.047 1.9940037,-0.06 2.9740077,-0.177 1.88,-0.225 3.516,-1.383 3.722,-2.44 0.324,-1.668 0.297,-4.068 0.297,-4.068 0,-3.254 -2.132,-4.208 -2.132,-4.208 C 12.20456,0.223 10.359556,0.016 8.4415533,0 Z M 6.2245528,2.542 c 0.798,0 1.403,0.308 1.803,0.922 l 0.3890005,0.651 0.388999,-0.651 c 0.4,-0.614 1.005,-0.922 1.8030047,-0.922 0.690003,0 1.247003,0.243 1.672003,0.717 0.412,0.473 0.617,1.113 0.617,1.918 v 3.94 h -1.561 V 5.293 c 0,-0.806 -0.34,-1.215 -1.018005,-1.215 -0.7500017,0 -1.1260027,0.485 -1.1260027,1.445 V 7.616 H 7.6405528 V 5.523 c 0,-0.96 -0.376,-1.445 -1.126,-1.445 -0.678,0 -1.018,0.409 -1.018,1.215 v 3.824 h -1.56 v -3.94 c 0,-0.805 0.204,-1.445 0.616,-1.918 0.425,-0.474 0.981,-0.717 1.672,-0.717 z"
     id="path1" />
</svg>
