<svg xmlns="http://www.w3.org/2000/svg" viewBox="0 0 16 16"><path d="M2.667 0A2.672 2.672 0 0 0 0 2.667v10.666A2.672 2.672 0 0 0 2.667 16h10.666A2.672 2.672 0 0 0 16 13.333V2.667A2.672 2.672 0 0 0 13.333 0Zm0 .762h10.666c1.057 0 1.905.848 1.905 1.905v10.666a1.899 1.899 0 0 1-1.905 1.905H2.667a1.899 1.899 0 0 1-1.905-1.905V2.667C.762 1.61 1.61.762 2.667.762zm.794 2.667L6.975 8.42l-3.546 4.151h.952l3.024-3.54 2.49 3.54h3.025l-3.858-5.48 3.128-3.662h-.952l-2.606 3.05-2.147-3.05Zm1.459.761h1.167l5.374 7.62h-1.167z" style="stroke-width:.380952"/></svg>
