<?xml version="1.0" encoding="UTF-8" standalone="no"?>
<svg
   sodipodi:docname="card.svg"
   inkscape:version="1.4 (e7c3feb100, 2024-10-09)"
   id="svg10448"
   version="1.1"
   viewBox="0 0 158.75 105.83334"
   height="400.00003"
   width="600"
   inkscape:export-filename="card.png"
   inkscape:export-xdpi="192"
   inkscape:export-ydpi="192"
   xmlns:inkscape="http://www.inkscape.org/namespaces/inkscape"
   xmlns:sodipodi="http://sodipodi.sourceforge.net/DTD/sodipodi-0.dtd"
   xmlns="http://www.w3.org/2000/svg"
   xmlns:svg="http://www.w3.org/2000/svg"
   xmlns:rdf="http://www.w3.org/1999/02/22-rdf-syntax-ns#"
   xmlns:cc="http://creativecommons.org/ns#"
   xmlns:dc="http://purl.org/dc/elements/1.1/">
  <defs
     id="defs10442">
    <filter
       id="filter62647-5-1-29"
       inkscape:label="Better Shadow"
       style="color-interpolation-filters:sRGB"
       x="-0.14328897"
       y="-0.089033969"
       width="1.286578"
       height="1.3395338">
      <feFlood
         id="feFlood62637-04-2-75"
         result="flood"
         flood-color="rgb(0,0,0)"
         flood-opacity="0.180392" />
      <feComposite
         id="feComposite62639-87-2-64"
         result="composite1"
         operator="in"
         in2="SourceGraphic"
         in="flood" />
      <feGaussianBlur
         id="feGaussianBlur62641-1-7-63"
         result="blur"
         stdDeviation="7"
         in="composite1" />
      <feOffset
         id="feOffset62643-7-7-7"
         result="offset"
         dy="6"
         dx="0" />
      <feComposite
         id="feComposite62645-2-9-9"
         result="fbSourceGraphic"
         operator="over"
         in2="offset"
         in="SourceGraphic" />
      <feColorMatrix
         id="feColorMatrix62793-7-1-7"
         values="0 0 0 -1 0 0 0 0 -1 0 0 0 0 -1 0 0 0 0 1 0"
         in="fbSourceGraphic"
         result="fbSourceGraphicAlpha" />
      <feFlood
         in="fbSourceGraphic"
         result="flood"
         flood-color="rgb(0,0,0)"
         flood-opacity="0.34902"
         id="feFlood62795-2-4-49" />
      <feComposite
         result="composite1"
         operator="in"
         in="flood"
         id="feComposite62797-26-04-17"
         in2="fbSourceGraphic" />
      <feGaussianBlur
         result="blur"
         stdDeviation="3.5"
         in="composite1"
         id="feGaussianBlur62799-1-7-0" />
      <feOffset
         result="offset"
         dy="3"
         dx="0"
         id="feOffset62801-06-8-6" />
      <feComposite
         result="composite2"
         operator="over"
         in="fbSourceGraphic"
         id="feComposite62803-1-7-0"
         in2="offset" />
    </filter>
  </defs>
  <sodipodi:namedview
     inkscape:snap-bbox-midpoints="true"
     inkscape:snap-bbox-edge-midpoints="true"
     inkscape:bbox-nodes="true"
     inkscape:bbox-paths="true"
     inkscape:snap-bbox="true"
     inkscape:window-maximized="0"
     inkscape:window-y="23"
     inkscape:window-x="26"
     inkscape:window-height="1190"
     inkscape:window-width="2626"
     units="px"
     showgrid="false"
     inkscape:document-rotation="0"
     inkscape:current-layer="layer1"
     inkscape:document-units="px"
     inkscape:cy="184"
     inkscape:cx="280"
     inkscape:zoom="1"
     inkscape:pageshadow="2"
     inkscape:pageopacity="0.0"
     borderopacity="1.0"
     bordercolor="#666666"
     pagecolor="#ffffff"
     id="base"
     inkscape:snap-page="true"
     inkscape:snap-text-baseline="true"
     inkscape:snap-center="true"
     inkscape:snap-object-midpoints="true"
     inkscape:pagecheckerboard="1"
     inkscape:showpageshadow="0"
     inkscape:deskcolor="#505050">
    <inkscape:grid
       originy="1.2031857e-13"
       originx="0"
       id="grid11077"
       type="xygrid"
       spacingy="1"
       spacingx="1"
       units="px" />
  </sodipodi:namedview>
  <metadata
     id="metadata10445">
    <rdf:RDF>
      <cc:Work
         rdf:about="">
        <dc:format>image/svg+xml</dc:format>
        <dc:type
           rdf:resource="http://purl.org/dc/dcmitype/StillImage" />
      </cc:Work>
    </rdf:RDF>
  </metadata>
  <g
     transform="translate(-459.7283,604.72058)"
     id="layer1"
     inkscape:groupmode="layer"
     inkscape:label="Layer 1">
    <rect
       y="-604.72058"
       x="459.7283"
       height="105.83334"
       width="158.75"
       id="rect965"
       style="fill:#d9c9ef;fill-opacity:1;stroke:none;stroke-width:0.26458597;stroke-linecap:butt;stroke-linejoin:miter;font-variation-settings:normal;opacity:1;vector-effect:none;stroke-miterlimit:4;stroke-dasharray:none;stroke-dashoffset:0;stroke-opacity:1;-inkscape-stroke:none;stop-color:#000000;stop-opacity:1"
       inkscape:export-xdpi="192"
       inkscape:export-ydpi="192" />
    <g
       id="g27"
       transform="matrix(0.17939649,0,0,0.17939649,519.96681,-577.55577)">
      <path
         id="path3-3"
         d="m 117.1896,34.540008 h 15.5516 L 174.448,89.32374 117.1896,79.780007 V 34.540008"
         style="fill:#6148a7;fill-opacity:1;fill-rule:nonzero;stroke:none;stroke-width:0.133333" />
      <path
         id="path4-6"
         d="m 117.1896,96.520673 50.5424,7.647867 6.716,-14.8448 -57.2584,-9.543733 v 16.740666"
         style="fill:#1d1832;fill-opacity:1;fill-rule:nonzero;stroke:none;stroke-width:0.133333" />
      <path
         id="path5-7"
         d="m 117.1896,111.71854 18.73306,8.7084 H 157.836 l 20.14666,12.01707 -10.25066,-28.27547 -50.5424,-7.647867 v 15.197867"
         style="fill:#6148a7;fill-opacity:1;fill-rule:nonzero;stroke:none;stroke-width:0.133333" />
      <path
         id="path6"
         d="m 73.088532,167.52374 44.101068,-55.8052 18.73306,8.7084 H 157.836 L 177.98266,132.44401 158.076,170.18 141.47733,178.81174 H 90.019731 l -16.931199,-11.288"
         style="fill:#1d1832;fill-opacity:1;fill-rule:nonzero;stroke:none;stroke-width:0.133333" />
      <path
         id="path7"
         d="m 117.1896,34.540008 h -16.6688 l -23.359335,33.887999 -11.474533,1.752 -30.326533,60.129733 13.524,37.29266 24.204133,-0.0787 44.101068,-55.8052 V 96.03934 79.780007 34.540008"
         style="fill:#9778c3;fill-opacity:1;fill-rule:nonzero;stroke:none;stroke-width:0.133333" />
      <path
         id="path8"
         d="m 48.884399,167.6024 18.269733,11.20934 h 22.865599 l -16.931199,-11.288 -24.204133,0.0787"
         style="fill:#6148a7;fill-opacity:1;fill-rule:nonzero;stroke:none;stroke-width:0.133333" />
      <path
         id="path9"
         d="m 79.440131,135.14254 c -2.207866,-0.10947 -4.276133,-0.612 -6.104666,-1.9604 -1.862,-1.37347 -3.976133,-1.6584 -6.206267,-1.1844 -1.0104,0.21453 -2.004666,0.5052 -3.016666,0.70933 -2.8256,0.56934 -4.785467,-1.32546 -5.511467,-3.2724 -0.704133,-1.88906 -0.309333,-3.72186 0.4344,-5.50826 1.028133,-2.46987 2.725467,-4.49747 4.3692,-6.55787 2.252133,-2.824 4.952667,-5.11667 8.1756,-6.76147 2.2124,-1.1292 4.550933,-1.91453 7.055733,-1.90466 4.2724,0.0177 7.305733,2.32346 8.7328,6.2224 0.904666,2.47186 0.8692,4.99893 0.4124,7.53493 -0.4708,2.61453 -1.0624,5.20773 -2.132267,7.65413 -0.609333,1.39427 -1.445333,2.65987 -2.588,3.69427 -1.025466,0.9292 -2.231733,1.376 -3.6208,1.3344"
         style="fill:#1d1832;fill-opacity:1;fill-rule:nonzero;stroke:none;stroke-width:0.133333" />
      <path
         id="path10"
         d="m 84.691198,88.99094 c -0.09533,2.8636 -0.583867,5.824 -2.4204,8.401066 -1.328133,1.864 -2.971333,3.336934 -5.259867,3.866664 -1.524533,0.35307 -3.055733,0.3568 -4.404133,-0.62866 -1.264133,-0.924004 -1.674,-2.306804 -1.733333,-3.754137 -0.243733,-5.953733 2.097333,-10.831866 6.385866,-14.8412 0.825067,-0.771333 1.804267,-1.311466 2.9828,-1.430666 1.187067,-0.1204 2.102667,0.314 2.753734,1.266666 0.872933,1.278134 1.227066,2.757734 1.4796,4.256667 0.148533,0.876666 0.216266,1.765733 0.215733,2.8636"
         style="fill:#1d1832;fill-opacity:1;fill-rule:nonzero;stroke:none;stroke-width:0.133333" />
      <path
         id="path11"
         d="m 101.9448,88.167473 c -0.008,2.9792 -0.9432,5.709467 -2.342669,8.289067 -1.25,2.304133 -2.823467,4.3656 -4.942267,5.95947 -1.512,1.13746 -3.161466,1.7604 -5.093733,1.36506 -2.0744,-0.42453 -3.4536,-1.97866 -3.638,-4.06413 -0.2052,-2.323867 0.518267,-4.408267 1.673467,-6.3468 2.139066,-3.5896 4.960933,-6.548534 8.490133,-8.8068 0.8312,-0.531733 1.715067,-0.945333 2.738933,-0.95 1.360536,-0.0063 2.289596,0.6344 2.766666,1.919333 0.31627,0.852 0.38387,1.734267 0.34747,2.6348"
         style="fill:#1d1832;fill-opacity:1;fill-rule:nonzero;stroke:none;stroke-width:0.133333" />
      <path
         id="path12"
         d="m 68.243732,104.22734 c -0.01827,2.47813 -0.554667,4.8688 -2.215067,6.872 -1.891733,2.28173 -4.328667,3.46507 -7.320266,3.26187 -1.623467,-0.1104 -2.680267,-1.1244 -3.238667,-2.59 -0.784267,-2.0584 -0.763467,-4.20054 -0.3208,-6.3204 0.6084,-2.91454 1.821333,-5.582804 3.6,-7.974404 0.586,-0.7876 1.291733,-1.490133 2.191733,-1.9276 1.5588,-0.757866 3.116133,-0.316133 4.5072,1.153067 1.988533,2.100533 2.81,4.618267 2.795867,7.525467"
         style="fill:#1d1832;fill-opacity:1;fill-rule:nonzero;stroke:none;stroke-width:0.133333" />
      <path
         id="path13"
         d="m 106.32133,104.81027 c 0.0193,0.77387 -0.11973,1.53067 -0.32187,2.26814 -0.78746,2.8756 -1.874,5.61413 -3.788,7.95266 -1.38546,1.6932 -2.895329,3.2572 -4.877062,4.2588 -3.268267,1.65267 -6.073467,0.0333 -7.1224,-2.48013 -0.610934,-1.46307 -0.319867,-2.94907 0.2052,-4.38387 0.602533,-1.648 1.613466,-3.05 2.740666,-4.3704 1.803067,-2.11186 3.911467,-3.84426 6.4328,-5.03853 1.047336,-0.49573 2.118666,-0.93173 3.272936,-1.13333 2.21453,-0.3864 3.46506,0.66613 3.45773,2.92666"
         style="fill:#1d1832;fill-opacity:1;fill-rule:nonzero;stroke:none;stroke-width:0.133333" />
    </g>
    <path
       d="m 510.67785,-535.18783 q -1.04372,0 -1.83264,-0.4508 -0.78892,-0.45571 -1.22992,-1.29363 -0.44101,-0.83792 -0.44101,-1.98944 0,-1.19562 0.46551,-2.03354 0.46551,-0.84282 1.25442,-1.28383 0.78892,-0.44591 1.76404,-0.44591 0.83791,0 1.51903,0.31851 0.68111,0.31361 1.11232,0.87712 0.43611,0.55861 0.52431,1.28382 h -1.74934 q -0.1225,-0.4557 -0.48021,-0.70561 -0.3528,-0.25481 -0.89671,-0.25481 -0.79872,0 -1.27403,0.58312 -0.47041,0.57821 -0.47041,1.63663 0,1.06822 0.46061,1.65623 0.46061,0.58311 1.28873,0.58311 0.72521,0 1.11722,-0.3479 0.39691,-0.34791 0.41161,-0.94082 h -1.46023 v -1.26913 h 3.13116 v 0.96042 q 0,0.97512 -0.41651,1.67584 -0.41161,0.69581 -1.13682,1.06822 -0.72521,0.3724 -1.66113,0.3724 z m 4.20918,-0.098 v -5.47831 h 1.66113 v 0.99962 h 0.0588 q 0.14701,-0.53901 0.48511,-0.80361 0.34301,-0.26461 0.79382,-0.26461 0.24991,0 0.48511,0.0588 v 1.48963 q -0.1225,-0.0441 -0.32341,-0.0637 -0.196,-0.0245 -0.3528,-0.0245 -0.47531,0 -0.78892,0.30381 -0.30871,0.3038 -0.30871,0.79381 v 2.98906 z m 5.55181,0.098 q -0.78891,0 -1.29852,-0.4018 -0.50471,-0.40181 -0.50471,-1.21523 0,-0.60761 0.2793,-0.96532 0.27931,-0.3577 0.73992,-0.52921 0.4655,-0.1715 1.01922,-0.2205 0.69581,-0.0588 0.99472,-0.14211 0.3038,-0.0882 0.3038,-0.343 v -0.0196 q 0,-0.28421 -0.2009,-0.43611 -0.19601,-0.1568 -0.54391,-0.1568 -0.35771,0 -0.58801,0.1519 -0.23031,0.1519 -0.29891,0.41161 l -1.54843,-0.20091 q 0.1617,-0.70071 0.78891,-1.13682 0.63212,-0.44101 1.66114,-0.44101 0.68111,0 1.22992,0.21071 0.55371,0.2107 0.87712,0.62231 0.32831,0.40671 0.32831,0.99472 v 3.71917 h -1.60724 v -0.76931 h -0.0441 q -0.45571,0.86731 -1.58763,0.86731 z m 0.51941,-1.13192 q 0.43121,0 0.73012,-0.2548 0.2989,-0.25481 0.2989,-0.66152 v -0.52431 q -0.147,0.0784 -0.42631,0.13231 -0.2793,0.0539 -0.51941,0.0931 -0.78891,0.1176 -0.78891,0.65171 0,0.27441 0.196,0.42141 0.20091,0.1421 0.50961,0.1421 z m 5.56161,-2.09234 v 3.12626 h -1.71013 v -5.47831 h 1.60723 l 0.0294,1.18093 q 0.21561,-0.56841 0.63211,-0.90652 0.41651,-0.34301 1.08293,-0.34301 0.85751,0 1.37692,0.56351 0.51941,0.56351 0.51941,1.49453 v 3.48887 h -1.71013 v -3.15566 q 0,-0.46061 -0.23521,-0.72032 -0.2352,-0.2646 -0.65661,-0.2646 -0.41651,0 -0.67621,0.26951 -0.25971,0.2646 -0.25971,0.74481 z m 4.6649,3.12626 v -5.47831 h 1.71013 v 5.47831 z m 0.85261,-6.12022 q -0.3626,0 -0.62231,-0.2401 -0.2597,-0.24011 -0.2597,-0.58312 0,-0.343 0.2597,-0.58311 0.25971,-0.2401 0.62231,-0.2401 0.36751,0 0.62722,0.2401 0.2597,0.24011 0.2597,0.58311 0,0.34301 -0.2597,0.58312 -0.25971,0.2401 -0.62722,0.2401 z m 4.9442,0.64191 v 1.26913 h -0.98492 v 2.53335 q 0,0.42631 0.43611,0.42631 0.0882,0 0.245,-0.0196 0.16171,-0.0245 0.23031,-0.0392 l 0.2205,1.24462 q -0.2891,0.0833 -0.55861,0.1127 -0.2695,0.0294 -0.50961,0.0294 -0.87221,0 -1.32302,-0.4067 -0.45081,-0.41161 -0.45081,-1.19563 v -2.68525 h -0.72522 v -1.26913 h 0.72522 v -1.30342 h 1.71013 v 1.30342 z m 3.33207,5.58121 q -1.28873,0 -2.02864,-0.74971 -0.73502,-0.75462 -0.73502,-2.07274 0,-0.84282 0.32831,-1.47983 0.33321,-0.63701 0.94082,-0.98982 0.60761,-0.35771 1.43083,-0.35771 0.76931,0 1.36222,0.32341 0.59782,0.3185 0.93592,0.94572 0.34301,0.62231 0.34301,1.52393 v 0.43121 h -3.66037 q 0.0245,0.59291 0.3234,0.89181 0.30381,0.29401 0.78892,0.29401 0.34301,0 0.59291,-0.1421 0.24991,-0.14701 0.35281,-0.42141 l 1.52393,0.2499 q -0.20581,0.71052 -0.85752,1.13193 -0.64681,0.4214 -1.64153,0.4214 z m -1.07312,-3.42026 h 2.02864 q -0.049,-0.46551 -0.30381,-0.72522 -0.2548,-0.2646 -0.70071,-0.2646 -0.45081,0 -0.71542,0.2695 -0.2597,0.26461 -0.3087,0.72032 z m 5.75271,3.42026 q -0.39201,0 -0.66151,-0.2597 -0.26461,-0.26461 -0.26461,-0.65171 0,-0.39201 0.26461,-0.65172 0.2695,-0.2646 0.66151,-0.2646 0.39201,0 0.65662,0.2646 0.2695,0.25971 0.2695,0.65172 0,0.3871 -0.2695,0.65171 -0.26461,0.2597 -0.65662,0.2597 z m 4.8756,0 q -0.85752,0 -1.47493,-0.3528 -0.61741,-0.35771 -0.95062,-0.98982 -0.3283,-0.63702 -0.3283,-1.47983 0,-0.84282 0.3283,-1.47983 0.33321,-0.63701 0.95062,-0.98982 0.61741,-0.35771 1.47493,-0.35771 1.04862,0 1.71994,0.52431 0.67621,0.52431 0.80361,1.42103 l -1.57783,0.26461 q -0.0833,-0.43121 -0.31851,-0.66642 -0.2303,-0.2352 -0.60761,-0.2352 -0.49001,0 -0.75951,0.40181 -0.26951,0.3969 -0.26951,1.10742 0,0.70561 0.26951,1.11722 0.2695,0.40671 0.75951,0.40671 0.37731,0 0.61251,-0.24501 0.24011,-0.245 0.31851,-0.68601 l 1.57783,0.2548 q -0.1274,0.92122 -0.79871,1.45533 -0.67132,0.52921 -1.72974,0.52921 z m 5.97322,0 q -0.85752,0 -1.47493,-0.3528 -0.61741,-0.35771 -0.95062,-0.98982 -0.32831,-0.63702 -0.32831,-1.47983 0,-0.84282 0.32831,-1.47983 0.33321,-0.63701 0.95062,-0.98982 0.61741,-0.35771 1.47493,-0.35771 0.85752,0 1.47003,0.35771 0.61741,0.35281 0.94572,0.98982 0.3332,0.63701 0.3332,1.47983 0,0.84281 -0.3332,1.47983 -0.32831,0.63211 -0.94572,0.98982 -0.61251,0.3528 -1.47003,0.3528 z m 0,-1.30832 q 0.49001,0 0.74971,-0.41651 0.25971,-0.42141 0.25971,-1.10742 0,-0.68602 -0.25971,-1.09762 -0.2597,-0.41161 -0.74971,-0.41161 -0.49001,0 -0.74972,0.41161 -0.2597,0.4116 -0.2597,1.09762 0,0.68601 0.2597,1.10742 0.25971,0.41651 0.74972,0.41651 z m 5.65471,1.28382 q -0.60761,0 -1.10742,-0.3136 -0.49981,-0.31851 -0.79382,-0.94082 -0.294,-0.62721 -0.294,-1.55823 0,-0.96042 0.3038,-1.58273 0.30871,-0.62232 0.80362,-0.92612 0.49981,-0.30381 1.07312,-0.30381 0.43611,0 0.74482,0.1519 0.3087,0.14701 0.50471,0.38221 0.2009,0.23031 0.3038,0.47531 h 0.0392 v -2.76365 h 1.70524 v 7.30114 h -1.68564 v -0.88692 h -0.0588 q -0.1617,0.37241 -0.53901,0.67132 -0.37241,0.294 -0.99962,0.294 z m 0.58311,-1.33282 q 0.48511,0 0.75952,-0.40181 0.2744,-0.40671 0.2744,-1.07802 0,-0.68112 -0.2744,-1.07802 -0.26951,-0.39691 -0.75952,-0.39691 -0.49491,0 -0.75951,0.40671 -0.25971,0.4018 -0.25971,1.06822 0,0.66641 0.25971,1.07312 0.2646,0.40671 0.75951,0.40671 z m 6.38483,1.35732 q -1.28873,0 -2.02864,-0.74971 -0.73502,-0.75462 -0.73502,-2.07274 0,-0.84282 0.32831,-1.47983 0.33321,-0.63701 0.94082,-0.98982 0.60761,-0.35771 1.43083,-0.35771 0.76931,0 1.36222,0.32341 0.59782,0.3185 0.93592,0.94572 0.34301,0.62231 0.34301,1.52393 v 0.43121 h -3.66037 q 0.0245,0.59291 0.3234,0.89181 0.30381,0.29401 0.78892,0.29401 0.34301,0 0.59291,-0.1421 0.24991,-0.14701 0.35281,-0.42141 l 1.52393,0.2499 q -0.20581,0.71052 -0.85752,1.13193 -0.64681,0.4214 -1.64153,0.4214 z m -1.07312,-3.42026 h 2.02864 q -0.049,-0.46551 -0.30381,-0.72522 -0.2548,-0.2646 -0.70071,-0.2646 -0.45081,0 -0.71542,0.2695 -0.2597,0.26461 -0.3087,0.72032 z"
       id="text2"
       style="font-weight:800;font-size:10.0354px;line-height:1.25;font-family:Inter;-inkscape-font-specification:'Inter, Ultra-Bold';text-align:center;letter-spacing:0px;word-spacing:0px;text-anchor:middle;stroke-width:1.36846"
       aria-label="Granite.code" />
  </g>
</svg>
