<?xml version="1.0" encoding="UTF-8" standalone="no"?>
<svg
   sodipodi:docname="card.svg"
   inkscape:version="1.4 (e7c3feb100, 2024-10-09)"
   id="svg10448"
   version="1.1"
   viewBox="0 0 158.75 105.83334"
   height="400.00003"
   width="600"
   inkscape:export-filename="card.png"
   inkscape:export-xdpi="192"
   inkscape:export-ydpi="192"
   xmlns:inkscape="http://www.inkscape.org/namespaces/inkscape"
   xmlns:sodipodi="http://sodipodi.sourceforge.net/DTD/sodipodi-0.dtd"
   xmlns="http://www.w3.org/2000/svg"
   xmlns:svg="http://www.w3.org/2000/svg"
   xmlns:rdf="http://www.w3.org/1999/02/22-rdf-syntax-ns#"
   xmlns:cc="http://creativecommons.org/ns#"
   xmlns:dc="http://purl.org/dc/elements/1.1/">
  <defs
     id="defs10442">
    <filter
       id="filter62647-5-1-29"
       inkscape:label="Better Shadow"
       style="color-interpolation-filters:sRGB"
       x="-0.14328897"
       y="-0.089033969"
       width="1.286578"
       height="1.3395338">
      <feFlood
         id="feFlood62637-04-2-75"
         result="flood"
         flood-color="rgb(0,0,0)"
         flood-opacity="0.180392" />
      <feComposite
         id="feComposite62639-87-2-64"
         result="composite1"
         operator="in"
         in2="SourceGraphic"
         in="flood" />
      <feGaussianBlur
         id="feGaussianBlur62641-1-7-63"
         result="blur"
         stdDeviation="7"
         in="composite1" />
      <feOffset
         id="feOffset62643-7-7-7"
         result="offset"
         dy="6"
         dx="0" />
      <feComposite
         id="feComposite62645-2-9-9"
         result="fbSourceGraphic"
         operator="over"
         in2="offset"
         in="SourceGraphic" />
      <feColorMatrix
         id="feColorMatrix62793-7-1-7"
         values="0 0 0 -1 0 0 0 0 -1 0 0 0 0 -1 0 0 0 0 1 0"
         in="fbSourceGraphic"
         result="fbSourceGraphicAlpha" />
      <feFlood
         in="fbSourceGraphic"
         result="flood"
         flood-color="rgb(0,0,0)"
         flood-opacity="0.34902"
         id="feFlood62795-2-4-49" />
      <feComposite
         result="composite1"
         operator="in"
         in="flood"
         id="feComposite62797-26-04-17"
         in2="fbSourceGraphic" />
      <feGaussianBlur
         result="blur"
         stdDeviation="3.5"
         in="composite1"
         id="feGaussianBlur62799-1-7-0" />
      <feOffset
         result="offset"
         dy="3"
         dx="0"
         id="feOffset62801-06-8-6" />
      <feComposite
         result="composite2"
         operator="over"
         in="fbSourceGraphic"
         id="feComposite62803-1-7-0"
         in2="offset" />
    </filter>
  </defs>
  <sodipodi:namedview
     inkscape:snap-bbox-midpoints="true"
     inkscape:snap-bbox-edge-midpoints="true"
     inkscape:bbox-nodes="true"
     inkscape:bbox-paths="true"
     inkscape:snap-bbox="true"
     inkscape:window-maximized="0"
     inkscape:window-y="23"
     inkscape:window-x="26"
     inkscape:window-height="1269"
     inkscape:window-width="1761"
     units="px"
     showgrid="false"
     inkscape:document-rotation="0"
     inkscape:current-layer="layer1"
     inkscape:document-units="px"
     inkscape:cy="183.5"
     inkscape:cx="279.5"
     inkscape:zoom="1"
     inkscape:pageshadow="2"
     inkscape:pageopacity="0.0"
     borderopacity="1.0"
     bordercolor="#666666"
     pagecolor="#ffffff"
     id="base"
     inkscape:snap-page="true"
     inkscape:snap-text-baseline="true"
     inkscape:snap-center="true"
     inkscape:snap-object-midpoints="true"
     inkscape:pagecheckerboard="1"
     inkscape:showpageshadow="0"
     inkscape:deskcolor="#505050">
    <inkscape:grid
       originy="1.2031857e-13"
       originx="0"
       id="grid11077"
       type="xygrid"
       spacingy="1"
       spacingx="1"
       units="px" />
  </sodipodi:namedview>
  <metadata
     id="metadata10445">
    <rdf:RDF>
      <cc:Work
         rdf:about="">
        <dc:format>image/svg+xml</dc:format>
        <dc:type
           rdf:resource="http://purl.org/dc/dcmitype/StillImage" />
      </cc:Work>
    </rdf:RDF>
  </metadata>
  <g
     transform="translate(-459.7283,604.72058)"
     id="layer1"
     inkscape:groupmode="layer"
     inkscape:label="Layer 1">
    <rect
       y="-604.72058"
       x="459.7283"
       height="105.83334"
       width="158.75"
       id="rect965"
       style="fill:#d9c9ef;fill-opacity:1;stroke:none;stroke-width:0.26458597;stroke-linecap:butt;stroke-linejoin:miter;font-variation-settings:normal;opacity:1;vector-effect:none;stroke-miterlimit:4;stroke-dasharray:none;stroke-dashoffset:0;stroke-opacity:1;-inkscape-stroke:none;stop-color:#000000;stop-opacity:1"
       inkscape:export-xdpi="192"
       inkscape:export-ydpi="192" />
    <path
       d="m 512.46919,-533.31613 q -0.78617,0 -1.30707,-0.21704 -0.5209,-0.21704 -0.80546,-0.60289 -0.28457,-0.38103 -0.36174,-0.86816 h 1.58681 q 0.0434,0.15434 0.16399,0.27009 0.12058,0.11576 0.30386,0.17846 0.18328,0.0627 0.41961,0.0627 0.46302,0 0.70418,-0.26045 0.24116,-0.25563 0.24116,-0.76205 v -0.78618 h -0.005 q -0.13505,0.29904 -0.35209,0.49196 -0.21221,0.19293 -0.49678,0.28457 -0.27974,0.0916 -0.61254,0.0916 -0.66559,0 -1.16237,-0.32797 -0.49679,-0.3328 -0.7717,-0.91158 -0.2701,-0.57877 -0.2701,-1.32636 0,-0.75723 0.27974,-1.34565 0.27974,-0.58843 0.7717,-0.92122 0.49196,-0.33762 1.13826,-0.33762 0.3328,0 0.60289,0.0965 0.27492,0.0916 0.49679,0.27492 0.22186,0.18328 0.3762,0.45337 h 0.005 v -0.71382 h 1.64951 v 4.81349 q 0,0.82958 -0.31833,1.35048 -0.3135,0.5209 -0.8971,0.76688 -0.5836,0.24597 -1.37942,0.24597 z m -0.0579,-3.4196 q 0.31833,0 0.55466,-0.15916 0.23634,-0.15916 0.36656,-0.44855 0.13505,-0.29421 0.13505,-0.68489 0,-0.39067 -0.13505,-0.68006 -0.13022,-0.28939 -0.36656,-0.44855 -0.23633,-0.15916 -0.55466,-0.15916 -0.29903,0 -0.52572,0.15434 -0.22186,0.15434 -0.34244,0.44372 -0.11576,0.28939 -0.11576,0.68971 0,0.40515 0.11576,0.69453 0.12058,0.28939 0.34244,0.44373 0.22669,0.15434 0.52572,0.15434 z m 3.57877,1.33601 v -5.09323 h 1.6061 v 0.8971 h 0.0145 q 0.13987,-0.48713 0.43408,-0.69935 0.29904,-0.21704 0.81029,-0.21704 0.13505,0 0.24116,0.005 0.11093,0 0.21222,0.005 v 1.36977 q -0.0916,-0.005 -0.28457,-0.01 -0.1881,-0.005 -0.37138,-0.005 -0.29421,0 -0.5209,0.13504 -0.22669,0.13023 -0.35691,0.38585 -0.1254,0.25563 -0.1254,0.61736 v 2.60932 z m 5.40828,0.0868 q -0.51125,0 -0.90675,-0.16399 -0.39068,-0.16881 -0.61736,-0.50161 -0.22187,-0.33761 -0.22187,-0.84404 0,-0.42926 0.15434,-0.71865 0.15434,-0.29421 0.42444,-0.47749 0.27492,-0.18328 0.63183,-0.27492 0.36173,-0.0965 0.76688,-0.13022 0.45337,-0.0386 0.72829,-0.082 0.27492,-0.0482 0.3955,-0.13022 0.12058,-0.0868 0.12058,-0.24116 v -0.0241 q 0,-0.15434 -0.0868,-0.26527 -0.0868,-0.11575 -0.24598,-0.17845 -0.15916,-0.0675 -0.3762,-0.0675 -0.23151,0 -0.40032,0.0723 -0.16881,0.0675 -0.26528,0.19775 -0.0965,0.1254 -0.11575,0.29903 h -1.5434 q 0.0386,-0.55466 0.32315,-0.94533 0.28456,-0.3955 0.80064,-0.60289 0.52089,-0.21222 1.25883,-0.21222 0.55466,0 0.9791,0.12058 0.42926,0.11575 0.72347,0.34726 0.29421,0.22669 0.44373,0.55949 0.14952,0.32797 0.14952,0.74758 v 3.42925 h -1.62058 v -0.71382 h -0.0193 q -0.15434,0.27492 -0.36173,0.45337 -0.2074,0.17363 -0.48232,0.26045 -0.27492,0.0868 -0.63665,0.0868 z m 0.50643,-1.08521 q 0.27492,0 0.49678,-0.10611 0.22669,-0.10611 0.35691,-0.28939 0.13023,-0.1881 0.13023,-0.4389 v -0.46302 q -0.0675,0.0289 -0.15917,0.0579 -0.0916,0.0289 -0.20739,0.053 -0.11093,0.0241 -0.24598,0.0482 -0.13505,0.0241 -0.28939,0.0531 -0.22186,0.0338 -0.3955,0.10611 -0.16881,0.0723 -0.27009,0.19292 -0.0965,0.11576 -0.0965,0.28457 0,0.15916 0.0868,0.27009 0.0868,0.11093 0.23633,0.17363 0.15435,0.0579 0.35692,0.0579 z m 5.19934,-1.77009 v 2.76848 h -1.65916 v -5.09323 h 1.63986 v 1.36495 h -0.24598 q 0.23634,-0.67524 0.68489,-1.07556 0.44855,-0.40032 1.18167,-0.40032 0.55466,0 0.94533,0.24116 0.39068,0.23633 0.59807,0.68488 0.20739,0.44855 0.20739,1.07556 v 3.20256 h -1.65915 v -2.8553 q 0,-0.45337 -0.21704,-0.6897 -0.21705,-0.24116 -0.61254,-0.24116 -0.26045,0 -0.4582,0.11093 -0.19293,0.11093 -0.29903,0.33762 -0.10611,0.22187 -0.10611,0.56913 z m 4.27812,2.76848 v -5.09323 h 1.65915 v 5.09323 z m 0.82475,-5.59001 q -0.40032,0 -0.65594,-0.23634 -0.25563,-0.23633 -0.25563,-0.60289 0,-0.36656 0.25563,-0.59807 0.25562,-0.23633 0.65594,-0.23633 0.40032,0 0.65595,0.23633 0.26045,0.23151 0.26045,0.59807 0,0.36656 -0.26045,0.60289 -0.25563,0.23634 -0.65595,0.23634 z m 5.02763,0.49678 v 1.28295 h -3.57876 v -1.28295 z m -2.7106,-1.38906 h 1.66398 v 4.77008 q 0,0.24598 0.0965,0.33762 0.0965,0.0916 0.37621,0.0916 0.1254,0 0.30868,0 0.18328,0 0.26527,0 v 1.28295 q -0.13022,0 -0.3955,0 -0.26527,0 -0.54501,0 -0.9164,0 -1.34565,-0.34244 -0.42444,-0.34727 -0.42444,-1.09003 z m 5.72796,6.59805 q -0.78135,0 -1.37459,-0.33762 -0.58842,-0.34245 -0.92122,-0.94534 -0.32797,-0.60289 -0.32797,-1.37941 0,-0.77653 0.32797,-1.37942 0.3328,-0.60289 0.9164,-0.94051 0.58359,-0.34244 1.336,-0.34244 0.57396,0 1.04662,0.19292 0.47267,0.1881 0.81511,0.54019 0.34727,0.35209 0.53537,0.8344 0.1881,0.47749 0.1881,1.05627 v 0.44855 h -4.62538 v -0.99356 h 3.84886 l -0.76206,0.20257 q 0,-0.32798 -0.12057,-0.56431 -0.12058,-0.23633 -0.34727,-0.36173 -0.22186,-0.13023 -0.53537,-0.13023 -0.3135,0 -0.54019,0.13023 -0.22186,0.1254 -0.34727,0.36173 -0.12057,0.23633 -0.12057,0.56431 v 0.73311 q 0,0.33762 0.1254,0.59325 0.13022,0.2508 0.36656,0.38585 0.24115,0.13505 0.57395,0.13505 0.24598,0 0.4389,-0.0675 0.19293,-0.0675 0.32315,-0.19292 0.13023,-0.1254 0.19293,-0.28939 h 1.49035 q -0.0916,0.51125 -0.44373,0.90675 -0.35209,0.39067 -0.88746,0.61736 -0.53054,0.22187 -1.17202,0.22187 z m 4.03214,-0.0241 q -0.3762,0 -0.64147,-0.26527 -0.26528,-0.2701 -0.26528,-0.6463 0,-0.37621 0.26528,-0.64148 0.26527,-0.26527 0.64147,-0.26527 0.37621,0 0.64148,0.26527 0.26527,0.26527 0.26527,0.64148 0,0.3762 -0.26527,0.6463 -0.26527,0.26527 -0.64148,0.26527 z m 4.13825,0.0241 q -0.78617,0 -1.37941,-0.3328 -0.59325,-0.33762 -0.92605,-0.93569 -0.32797,-0.59807 -0.32797,-1.39388 0,-0.791 0.32797,-1.38907 0.3328,-0.60289 0.92605,-0.93569 0.59324,-0.33761 1.37941,-0.33761 0.53055,0 0.97427,0.15434 0.44856,0.15434 0.77653,0.4389 0.3328,0.27974 0.52572,0.67042 0.19293,0.38585 0.22187,0.85369 h -1.60129 q -0.0193,-0.17845 -0.0868,-0.32797 -0.0675,-0.14952 -0.18328,-0.25563 -0.11093,-0.10611 -0.26045,-0.15916 -0.14952,-0.0579 -0.3328,-0.0579 -0.30868,0 -0.53054,0.16399 -0.22187,0.15916 -0.33762,0.46302 -0.11576,0.30386 -0.11576,0.71865 0,0.41479 0.11576,0.71864 0.11575,0.30386 0.33762,0.46785 0.22186,0.15916 0.53054,0.15916 0.18328,0 0.3328,-0.053 0.14952,-0.0579 0.25563,-0.16399 0.11093,-0.11093 0.17845,-0.26045 0.0675,-0.15434 0.0916,-0.33762 h 1.60611 q -0.0145,0.46784 -0.20258,0.85852 -0.1881,0.38585 -0.52089,0.67524 -0.3328,0.28456 -0.78618,0.44373 -0.44855,0.15434 -0.98874,0.15434 z m 5.66236,0 q -0.79582,0 -1.40353,-0.32798 -0.60289,-0.32797 -0.94051,-0.92604 -0.33762,-0.59807 -0.33762,-1.40835 0,-0.80547 0.33762,-1.40354 0.33762,-0.59807 0.94051,-0.92604 0.60771,-0.33279 1.40353,-0.33279 0.80064,0 1.39871,0.33279 0.60289,0.32797 0.94051,0.92604 0.33762,0.59807 0.33762,1.40354 0,0.81028 -0.33762,1.40835 -0.33762,0.59807 -0.94051,0.92604 -0.59807,0.32798 -1.39871,0.32798 z m 0,-1.32154 q 0.28939,0 0.51125,-0.15434 0.22669,-0.15917 0.35692,-0.4582 0.13022,-0.29904 0.13022,-0.72829 0,-0.42926 -0.13022,-0.7283 -0.13023,-0.29903 -0.35692,-0.45337 -0.22186,-0.15917 -0.51125,-0.15917 -0.28939,0 -0.51607,0.15917 -0.22669,0.15434 -0.35692,0.45337 -0.1254,0.29904 -0.1254,0.7283 0,0.42925 0.1254,0.72829 0.13023,0.29903 0.35692,0.4582 0.22668,0.15434 0.51607,0.15434 z m 5.38262,1.31671 q -0.66559,0 -1.16237,-0.32797 -0.49679,-0.3328 -0.77171,-0.93087 -0.27009,-0.60289 -0.27009,-1.40835 0,-0.78135 0.27974,-1.37942 0.27974,-0.59807 0.7717,-0.93086 0.49196,-0.33762 1.13826,-0.33762 0.3328,0 0.60289,0.0868 0.2701,0.0868 0.48232,0.26528 0.21704,0.17363 0.3762,0.44373 h 0.005 v -2.77813 h 1.66398 v 7.18647 h -1.64469 v -0.78617 h -0.005 q -0.13022,0.29903 -0.34726,0.50161 -0.21704,0.19774 -0.50161,0.29421 -0.28456,0.10128 -0.61736,0.10128 z m 0.46302,-1.32636 q 0.31833,0 0.55466,-0.16399 0.23634,-0.16881 0.36656,-0.46784 0.13505,-0.29903 0.13505,-0.709 0,-0.40514 -0.13505,-0.69936 -0.13022,-0.29903 -0.36656,-0.46302 -0.23633,-0.16398 -0.55466,-0.16398 -0.29903,0 -0.52572,0.15916 -0.22186,0.15916 -0.34244,0.4582 -0.11576,0.29421 -0.11576,0.709 0,0.41961 0.11576,0.71865 0.12058,0.29903 0.34244,0.46302 0.22669,0.15916 0.52572,0.15916 z m 5.99034,1.33119 q -0.78135,0 -1.3746,-0.33762 -0.58842,-0.34245 -0.92122,-0.94534 -0.32797,-0.60289 -0.32797,-1.37941 0,-0.77653 0.32797,-1.37942 0.3328,-0.60289 0.9164,-0.94051 0.5836,-0.34244 1.33601,-0.34244 0.57395,0 1.04662,0.19292 0.47266,0.1881 0.81511,0.54019 0.34726,0.35209 0.53537,0.8344 0.1881,0.47749 0.1881,1.05627 v 0.44855 h -4.62539 v -0.99356 h 3.84886 l -0.76205,0.20257 q 0,-0.32798 -0.12058,-0.56431 -0.12058,-0.23633 -0.34727,-0.36173 -0.22186,-0.13023 -0.53536,-0.13023 -0.31351,0 -0.5402,0.13023 -0.22186,0.1254 -0.34726,0.36173 -0.12058,0.23633 -0.12058,0.56431 v 0.73311 q 0,0.33762 0.1254,0.59325 0.13023,0.2508 0.36656,0.38585 0.24116,0.13505 0.57395,0.13505 0.24598,0 0.43891,-0.0675 0.19292,-0.0675 0.32315,-0.19292 0.13022,-0.1254 0.19292,-0.28939 h 1.49035 q -0.0916,0.51125 -0.44373,0.90675 -0.35208,0.39067 -0.88745,0.61736 -0.53055,0.22187 -1.17202,0.22187 z"
       id="text1"
       style="font-size:9.87778px;font-family:'Inter Variable';-inkscape-font-specification:'Inter Variable, @opsz=32,wght=800';font-variation-settings:'opsz' 32, 'wght' 800;stroke-width:0.264586"
       aria-label="granite.code" />
    <g
       id="g27"
       transform="matrix(0.17939649,0,0,0.17939649,519.96681,-577.55577)">
      <path
         id="path3-3"
         d="m 117.1896,34.540008 h 15.5516 L 174.448,89.32374 117.1896,79.780007 V 34.540008"
         style="fill:#6148a7;fill-opacity:1;fill-rule:nonzero;stroke:none;stroke-width:0.133333" />
      <path
         id="path4-6"
         d="m 117.1896,96.520673 50.5424,7.647867 6.716,-14.8448 -57.2584,-9.543733 v 16.740666"
         style="fill:#1d1832;fill-opacity:1;fill-rule:nonzero;stroke:none;stroke-width:0.133333" />
      <path
         id="path5-7"
         d="m 117.1896,111.71854 18.73306,8.7084 H 157.836 l 20.14666,12.01707 -10.25066,-28.27547 -50.5424,-7.647867 v 15.197867"
         style="fill:#6148a7;fill-opacity:1;fill-rule:nonzero;stroke:none;stroke-width:0.133333" />
      <path
         id="path6"
         d="m 73.088532,167.52374 44.101068,-55.8052 18.73306,8.7084 H 157.836 L 177.98266,132.44401 158.076,170.18 141.47733,178.81174 H 90.019731 l -16.931199,-11.288"
         style="fill:#1d1832;fill-opacity:1;fill-rule:nonzero;stroke:none;stroke-width:0.133333" />
      <path
         id="path7"
         d="m 117.1896,34.540008 h -16.6688 l -23.359335,33.887999 -11.474533,1.752 -30.326533,60.129733 13.524,37.29266 24.204133,-0.0787 44.101068,-55.8052 V 96.03934 79.780007 34.540008"
         style="fill:#9778c3;fill-opacity:1;fill-rule:nonzero;stroke:none;stroke-width:0.133333" />
      <path
         id="path8"
         d="m 48.884399,167.6024 18.269733,11.20934 h 22.865599 l -16.931199,-11.288 -24.204133,0.0787"
         style="fill:#6148a7;fill-opacity:1;fill-rule:nonzero;stroke:none;stroke-width:0.133333" />
      <path
         id="path9"
         d="m 79.440131,135.14254 c -2.207866,-0.10947 -4.276133,-0.612 -6.104666,-1.9604 -1.862,-1.37347 -3.976133,-1.6584 -6.206267,-1.1844 -1.0104,0.21453 -2.004666,0.5052 -3.016666,0.70933 -2.8256,0.56934 -4.785467,-1.32546 -5.511467,-3.2724 -0.704133,-1.88906 -0.309333,-3.72186 0.4344,-5.50826 1.028133,-2.46987 2.725467,-4.49747 4.3692,-6.55787 2.252133,-2.824 4.952667,-5.11667 8.1756,-6.76147 2.2124,-1.1292 4.550933,-1.91453 7.055733,-1.90466 4.2724,0.0177 7.305733,2.32346 8.7328,6.2224 0.904666,2.47186 0.8692,4.99893 0.4124,7.53493 -0.4708,2.61453 -1.0624,5.20773 -2.132267,7.65413 -0.609333,1.39427 -1.445333,2.65987 -2.588,3.69427 -1.025466,0.9292 -2.231733,1.376 -3.6208,1.3344"
         style="fill:#1d1832;fill-opacity:1;fill-rule:nonzero;stroke:none;stroke-width:0.133333" />
      <path
         id="path10"
         d="m 84.691198,88.99094 c -0.09533,2.8636 -0.583867,5.824 -2.4204,8.401066 -1.328133,1.864 -2.971333,3.336934 -5.259867,3.866664 -1.524533,0.35307 -3.055733,0.3568 -4.404133,-0.62866 -1.264133,-0.924004 -1.674,-2.306804 -1.733333,-3.754137 -0.243733,-5.953733 2.097333,-10.831866 6.385866,-14.8412 0.825067,-0.771333 1.804267,-1.311466 2.9828,-1.430666 1.187067,-0.1204 2.102667,0.314 2.753734,1.266666 0.872933,1.278134 1.227066,2.757734 1.4796,4.256667 0.148533,0.876666 0.216266,1.765733 0.215733,2.8636"
         style="fill:#1d1832;fill-opacity:1;fill-rule:nonzero;stroke:none;stroke-width:0.133333" />
      <path
         id="path11"
         d="m 101.9448,88.167473 c -0.008,2.9792 -0.9432,5.709467 -2.342669,8.289067 -1.25,2.304133 -2.823467,4.3656 -4.942267,5.95947 -1.512,1.13746 -3.161466,1.7604 -5.093733,1.36506 -2.0744,-0.42453 -3.4536,-1.97866 -3.638,-4.06413 -0.2052,-2.323867 0.518267,-4.408267 1.673467,-6.3468 2.139066,-3.5896 4.960933,-6.548534 8.490133,-8.8068 0.8312,-0.531733 1.715067,-0.945333 2.738933,-0.95 1.360536,-0.0063 2.289596,0.6344 2.766666,1.919333 0.31627,0.852 0.38387,1.734267 0.34747,2.6348"
         style="fill:#1d1832;fill-opacity:1;fill-rule:nonzero;stroke:none;stroke-width:0.133333" />
      <path
         id="path12"
         d="m 68.243732,104.22734 c -0.01827,2.47813 -0.554667,4.8688 -2.215067,6.872 -1.891733,2.28173 -4.328667,3.46507 -7.320266,3.26187 -1.623467,-0.1104 -2.680267,-1.1244 -3.238667,-2.59 -0.784267,-2.0584 -0.763467,-4.20054 -0.3208,-6.3204 0.6084,-2.91454 1.821333,-5.582804 3.6,-7.974404 0.586,-0.7876 1.291733,-1.490133 2.191733,-1.9276 1.5588,-0.757866 3.116133,-0.316133 4.5072,1.153067 1.988533,2.100533 2.81,4.618267 2.795867,7.525467"
         style="fill:#1d1832;fill-opacity:1;fill-rule:nonzero;stroke:none;stroke-width:0.133333" />
      <path
         id="path13"
         d="m 106.32133,104.81027 c 0.0193,0.77387 -0.11973,1.53067 -0.32187,2.26814 -0.78746,2.8756 -1.874,5.61413 -3.788,7.95266 -1.38546,1.6932 -2.895329,3.2572 -4.877062,4.2588 -3.268267,1.65267 -6.073467,0.0333 -7.1224,-2.48013 -0.610934,-1.46307 -0.319867,-2.94907 0.2052,-4.38387 0.602533,-1.648 1.613466,-3.05 2.740666,-4.3704 1.803067,-2.11186 3.911467,-3.84426 6.4328,-5.03853 1.047336,-0.49573 2.118666,-0.93173 3.272936,-1.13333 2.21453,-0.3864 3.46506,0.66613 3.45773,2.92666"
         style="fill:#1d1832;fill-opacity:1;fill-rule:nonzero;stroke:none;stroke-width:0.133333" />
    </g>
  </g>
</svg>
