<?xml version="1.0" encoding="UTF-8" standalone="no"?>
<svg
   width="160"
   height="26"
   version="1.1"
   id="svg10"
   sodipodi:docname="page-logo-i.svg"
   inkscape:version="1.4 (e7c3feb100, 2024-10-09)"
   xmlns:inkscape="http://www.inkscape.org/namespaces/inkscape"
   xmlns:sodipodi="http://sodipodi.sourceforge.net/DTD/sodipodi-0.dtd"
   xmlns="http://www.w3.org/2000/svg"
   xmlns:svg="http://www.w3.org/2000/svg">
  <defs
     id="defs14" />
  <sodipodi:namedview
     id="namedview12"
     pagecolor="#505050"
     bordercolor="#ffffff"
     borderopacity="1"
     inkscape:pageshadow="0"
     inkscape:pageopacity="0"
     inkscape:pagecheckerboard="1"
     showgrid="false"
     width="149px"
     inkscape:current-layer="svg10"
     inkscape:showpageshadow="0"
     inkscape:deskcolor="#505050"
     inkscape:zoom="5.6568542"
     inkscape:cx="25.809398"
     inkscape:cy="21.566757"
     inkscape:window-width="3689"
     inkscape:window-height="1242"
     inkscape:window-x="26"
     inkscape:window-y="23"
     inkscape:window-maximized="0" />
  <g
     id="g28"
     transform="matrix(0.18023514,0,0,0.18023514,-136.12378,-6.2384978)">
    <path
       id="path22"
       d="m 838.83198,34.544008 h 14.17067 l 40.48266,53.175598 -54.65333,-9.111599 V 34.544008"
       style="fill:#ffffff;fill-opacity:1;fill-rule:nonzero;stroke:none;stroke-width:0.133333" />
    <path
       id="path23"
       d="m 838.83198,95.31494 49.77066,7.49533 5.50934,-12.17813 -55.25867,-9.2 -0.0213,13.8828"
       style="fill:#ffffff;fill-opacity:1;fill-rule:nonzero;stroke:none;stroke-width:0.133333" />
    <path
       id="path24"
       d="m 838.84531,110.82481 17.64534,8.226 21.97999,-0.0129 19.016,11.32654 -9.056,-24.70214 -49.59866,-7.527064 0.0133,12.689604"
       style="fill:#ffffff;fill-opacity:1;fill-rule:nonzero;stroke:none;stroke-width:0.133333" />
    <path
       id="path25"
       d="m 795.16398,166.97067 42.692,-53.52506 18.01733,8.3552 21.84933,-0.008 19.764,11.83533 -19.152,36.5412 -16.59733,8.63067 h -49.83866 l -16.73467,-11.82907"
       style="fill:#ffffff;fill-opacity:1;fill-rule:nonzero;stroke:none;stroke-width:0.133333" />
    <path
       id="path26"
       d="m 771.40531,168.9748 16.01734,9.82494 h 19.616 l -14.31734,-9.9156 -21.316,0.0907"
       style="fill:#ffffff;fill-opacity:1;fill-rule:nonzero;stroke:none;stroke-width:0.133333" />
    <path
       id="path27"
       d="m 826.48665,104.81027 c 0.02,0.77387 -0.11867,1.53067 -0.32134,2.26814 -0.78666,2.8756 -1.87333,5.61413 -3.788,7.95266 -1.38533,1.6932 -2.89466,3.2572 -4.87733,4.2588 -3.268,1.65267 -6.07333,0.0333 -7.12267,-2.48013 -0.61066,-1.46307 -0.31866,-2.94907 0.20534,-4.38387 0.60266,-1.648 1.61333,-3.05 2.74133,-4.3704 1.80267,-2.11186 3.91067,-3.84426 6.432,-5.03853 1.048,-0.49573 2.12,-0.93173 3.27333,-1.13333 2.21467,-0.3864 3.46534,0.66613 3.45734,2.92666 z m -38.07734,-0.58293 c -0.0173,2.47813 -0.55466,4.8688 -2.21466,6.872 -1.892,2.28173 -4.32934,3.46507 -7.32,3.26187 -1.624,-0.1104 -2.68134,-1.1244 -3.23867,-2.59 -0.784,-2.0584 -0.764,-4.20054 -0.32133,-6.3204 0.60933,-2.91454 1.82133,-5.582804 3.6,-7.974404 0.58666,-0.7876 1.292,-1.490133 2.192,-1.9276 1.55866,-0.757866 3.116,-0.316133 4.50666,1.153067 1.98934,2.100533 2.81067,4.618267 2.796,7.525467 z m 33.70134,-16.059867 c -0.008,2.9792 -0.94267,5.709467 -2.34267,8.289067 -1.24933,2.304133 -2.82267,4.3656 -4.94267,5.95947 -1.512,1.13746 -3.16133,1.7604 -5.09333,1.36506 -2.07467,-0.42453 -3.45333,-1.97866 -3.63733,-4.06413 -0.20534,-2.323867 0.51733,-4.408267 1.67333,-6.3468 2.13867,-3.5896 4.96,-6.548534 8.48933,-8.8068 0.832,-0.531733 1.716,-0.945333 2.74,-0.95 1.36,-0.0063 2.28934,0.6344 2.76667,1.919333 0.316,0.852 0.38267,1.734267 0.34667,2.6348 z m -17.25334,0.823467 c -0.0947,2.8636 -0.584,5.824 -2.42,8.401066 -1.328,1.864 -2.972,3.336934 -5.26,3.866664 -1.524,0.35307 -3.056,0.3568 -4.404,-0.62866 -1.264,-0.924004 -1.67466,-2.306804 -1.73333,-3.754137 -0.244,-5.953733 2.09733,-10.831866 6.38533,-14.8412 0.82534,-0.771333 1.804,-1.311466 2.98267,-1.430666 1.188,-0.1204 2.10267,0.314 2.75333,1.266666 0.87334,1.278134 1.228,2.757734 1.48,4.256667 0.148,0.876666 0.216,1.765733 0.216,2.8636 z m -5.25066,46.1516 c -2.208,-0.10947 -4.276,-0.612 -6.10534,-1.9604 -1.86133,-1.37347 -3.976,-1.6584 -6.20666,-1.1844 -1.00934,0.21453 -2.004,0.5052 -3.016,0.70933 -2.82534,0.56934 -4.78534,-1.32546 -5.512,-3.2724 -0.704,-1.88906 -0.30934,-3.72186 0.43466,-5.50826 1.028,-2.46987 2.72534,-4.49747 4.36934,-6.55787 2.252,-2.824 4.95333,-5.11667 8.17466,-6.76147 2.21334,-1.1292 4.552,-1.91453 7.05734,-1.90466 4.272,0.0177 7.30533,2.32346 8.732,6.2224 0.90533,2.47186 0.86933,4.99893 0.41333,7.53493 -0.472,2.61453 -1.06267,5.20773 -2.13333,7.65413 -0.60934,1.39427 -1.44534,2.65987 -2.588,3.69427 -1.02534,0.9292 -2.23067,1.376 -3.62,1.3344 z M 835.94531,34.544008 h -15.15866 l -23.35734,33.883999 -11.47466,1.752 -30.32134,60.124003 13.00667,35.87079 23.628,-0.0724 43.79467,-54.87079 -0.11734,-76.687602"
       style="fill:#ffffff;fill-opacity:1;fill-rule:nonzero;stroke:none;stroke-width:0.133333" />
  </g>
  <path
     d="m 192.56523,262.80093 q -3.94477,0 -6.92651,-1.70382 -2.98175,-1.72236 -4.64852,-4.88931 -1.66681,-3.16694 -1.66681,-7.51914 0,-4.51888 1.75941,-7.68582 1.75941,-3.18546 4.74111,-4.85227 2.98175,-1.68533 6.66724,-1.68533 3.1669,0 5.74122,1.20382 2.57427,1.18529 4.20404,3.3151 1.64829,2.11128 1.98164,4.85223 h -6.61167 q -0.463,-1.72233 -1.81497,-2.66687 -1.33342,-0.96306 -3.38914,-0.96306 -3.01879,0 -4.81523,2.20391 -1.77793,2.18536 -1.77793,6.18569 0,4.03737 1.74089,6.25977 1.74089,2.20388 4.87079,2.20388 2.74095,0 4.22256,-1.3149 1.50013,-1.31493 1.55569,-3.55585 h -5.51898 v -4.79672 h 11.83431 v 3.62994 q 0,3.68549 -1.57421,6.33388 -1.55569,2.62984 -4.29664,4.03737 -2.74096,1.4075 -6.27829,1.4075 z m 15.90871,-0.3704 v -20.70542 h 6.27829 v 3.77809 h 0.22223 q 0.55563,-2.0372 1.83349,-3.03727 1.29642,-1.0001 3.00026,-1.0001 0.94455,0 1.83349,0.22224 v 5.6301 q -0.46299,-0.16668 -1.22234,-0.24076 -0.74078,-0.0926 -1.33341,-0.0926 -1.79645,0 -2.98175,1.14826 -1.16678,1.14822 -1.16678,3.00023 v 11.29723 z m 20.98322,0.3704 q -2.98171,0 -4.90779,-1.51862 -1.90757,-1.51865 -1.90757,-4.59299 0,-2.29648 1.05562,-3.64846 1.05566,-1.35193 2.79655,-2.00016 1.75937,-0.64819 3.85217,-0.83339 2.62984,-0.22223 3.75957,-0.53711 1.14822,-0.33335 1.14822,-1.29637 v -0.0741 q 0,-1.07418 -0.7593,-1.64829 -0.74083,-0.59263 -2.05573,-0.59263 -1.35197,0 -2.2224,0.57411 -0.87046,0.57411 -1.12973,1.55569 l -5.85234,-0.75935 q 0.61115,-2.64835 2.98171,-4.29664 2.38911,-1.66681 6.27832,-1.66681 2.57428,0 4.64852,0.79639 2.09276,0.79634 3.3151,2.35203 1.24086,1.53718 1.24086,3.75958 v 14.0567 h -6.07461 v -2.90763 h -0.16668 q -1.72237,3.27803 -6.00049,3.27803 z m 1.96312,-4.27813 q 1.62977,0 2.75951,-0.96302 1.1297,-0.96306 1.1297,-2.50023 v -1.98165 q -0.55559,0.29632 -1.61125,0.50007 -1.05562,0.20372 -1.96312,0.35187 -2.98171,0.44448 -2.98171,2.46316 0,1.03714 0.74079,1.59273 0.75934,0.53707 1.92608,0.53707 z m 21.02026,-7.90805 v 11.81578 h -6.46348 v -20.70542 h 6.07457 l 0.11112,4.46336 q 0.8149,-2.14833 2.38907,-3.42622 1.57422,-1.29642 4.09297,-1.29642 3.24098,0 5.20411,2.1298 1.96312,2.12981 1.96312,5.64862 v 13.18628 h -6.46348 v -11.9269 q 0,-1.74089 -0.88899,-2.72247 -0.88894,-1.00006 -2.48167,-1.00006 -1.57421,0 -2.55576,1.01862 -0.98158,1.00006 -0.98158,2.81503 z m 17.63112,11.81578 v -20.70542 h 6.46348 v 20.70542 z m 3.22246,-23.13154 q -1.37045,0 -2.35203,-0.90746 -0.98155,-0.90751 -0.98155,-2.20392 0,-1.29638 0.98155,-2.20388 0.98158,-0.90747 2.35203,-0.90747 1.38902,0 2.3706,0.90747 0.98154,0.9075 0.98154,2.20388 0,1.29641 -0.98154,2.20392 -0.98158,0.90746 -2.3706,0.90746 z m 18.68674,2.42612 v 4.79671 h -3.72253 v 9.57487 q 0,1.61125 1.64829,1.61125 0.33336,0 0.92599,-0.0741 0.61118,-0.0926 0.87046,-0.14816 l 0.83339,4.70408 q -1.09267,0.31483 -2.11129,0.42595 -1.01858,0.11112 -1.92608,0.11112 -3.29654,0 -5.00039,-1.53714 -1.70385,-1.55569 -1.70385,-4.51891 V 246.5218 h -2.74099 v -4.79671 h 2.74099 v -4.92631 h 6.46348 v 4.92631 z m 12.59366,21.09434 q -4.8708,0 -7.66731,-2.83355 -2.77802,-2.85211 -2.77802,-7.83398 0,-3.18546 1.24085,-5.59306 1.25938,-2.4076 3.55586,-3.74105 2.29648,-1.35198 5.40786,-1.35198 2.90763,0 5.14855,1.22234 2.25947,1.20378 3.53733,3.57437 1.29642,2.35204 1.29642,5.75974 v 1.62977 h -13.83447 q 0.0926,2.24092 1.2223,3.37062 1.14826,1.11122 2.98174,1.11122 1.29642,0 2.24092,-0.53707 0.94454,-0.55563 1.33346,-1.59273 l 5.75973,0.9445 q -0.77786,2.68543 -3.24102,4.27816 -2.44463,1.5927 -6.2042,1.5927 z m -4.05589,-12.92697 h 7.6673 q -0.1852,-1.75941 -1.14826,-2.74099 -0.96302,-1.00006 -2.64835,-1.00006 -1.70385,0 -2.70395,1.01858 -0.98154,1.0001 -1.16674,2.72247 z m 21.74252,12.92697 q -1.48161,0 -2.50019,-0.98155 -1.0001,-1.0001 -1.0001,-2.46315 0,-1.48162 1.0001,-2.4632 1.01858,-1.00006 2.50019,-1.00006 1.48162,0 2.48172,1.00006 1.01858,0.98158 1.01858,2.4632 0,1.46305 -1.01858,2.46315 -1.0001,0.98155 -2.48172,0.98155 z m 18.42747,0 q -3.24102,0 -5.57454,-1.33342 -2.33352,-1.35198 -3.59289,-3.74105 -1.24082,-2.40764 -1.24082,-5.59306 0,-3.18546 1.24082,-5.59306 1.25937,-2.4076 3.59289,-3.74105 2.33352,-1.35198 5.57454,-1.35198 3.96329,0 6.50056,1.98165 2.55575,1.98164 3.03727,5.37082 l -5.96346,1.0001 q -0.31483,-1.62977 -1.20381,-2.51875 -0.87043,-0.88895 -2.29648,-0.88895 -1.85201,0 -2.87059,1.51865 -1.01862,1.5001 -1.01862,4.18553 0,2.66687 1.01862,4.22256 1.01858,1.53717 2.87059,1.53717 1.42605,0 2.315,-0.92602 0.9075,-0.92598 1.20381,-2.59279 l 5.96346,0.96302 q -0.48152,3.48178 -3.01875,5.50046 -2.53727,2.00017 -6.5376,2.00017 z m 22.57595,0 q -3.24102,0 -5.57454,-1.33342 -2.33352,-1.35198 -3.59289,-3.74105 -1.24086,-2.40764 -1.24086,-5.59306 0,-3.18546 1.24086,-5.59306 1.25937,-2.4076 3.59289,-3.74105 2.33352,-1.35198 5.57454,-1.35198 3.24102,0 5.55602,1.35198 2.33352,1.33345 3.57437,3.74105 1.25934,2.4076 1.25934,5.59306 0,3.18542 -1.25934,5.59306 -1.24085,2.38907 -3.57437,3.74105 -2.315,1.33342 -5.55602,1.33342 z m 0,-4.94484 q 1.85201,0 2.83355,-1.57421 0.98158,-1.59273 0.98158,-4.18552 0,-2.59283 -0.98158,-4.14849 -0.98154,-1.55569 -2.83355,-1.55569 -1.85201,0 -2.83359,1.55569 -0.98154,1.55566 -0.98154,4.14849 0,2.59279 0.98154,4.18552 0.98158,1.57421 2.83359,1.57421 z m 21.37213,4.85224 q -2.29648,0 -4.18552,-1.18526 -1.88905,-1.20382 -3.00027,-3.55586 -1.11118,-2.37056 -1.11118,-5.88937 0,-3.62994 1.14822,-5.98197 1.16678,-2.35208 3.03731,-3.5003 1.88904,-1.14826 4.05588,-1.14826 1.64829,0 2.81507,0.57411 1.16674,0.55563 1.90757,1.44458 0.7593,0.87046 1.14822,1.79644 h 0.14815 v -10.44529 h 6.44501 v 27.59486 h -6.37093 v -3.35214 H 390.452 q -0.61115,1.40754 -2.03721,2.53728 -1.40753,1.11118 -3.77809,1.11118 z m 2.20388,-5.03743 q 1.83349,0 2.87063,-1.51866 1.0371,-1.53717 1.0371,-4.0744 0,-2.57431 -1.0371,-4.07441 -1.01862,-1.50013 -2.87063,-1.50013 -1.87052,0 -2.87059,1.53717 -0.98158,1.51862 -0.98158,4.03737 0,2.51871 0.98158,4.05588 1.00007,1.53718 2.87059,1.53718 z m 24.13164,5.13003 q -4.87079,0 -7.6673,-2.83355 -2.77803,-2.85211 -2.77803,-7.83398 0,-3.18546 1.24086,-5.59306 1.25938,-2.4076 3.55586,-3.74105 2.29647,-1.35198 5.40786,-1.35198 2.90763,0 5.14855,1.22234 2.25947,1.20378 3.53733,3.57437 1.29642,2.35204 1.29642,5.75974 v 1.62977 H 406.8793 q 0.0926,2.24092 1.2223,3.37062 1.14825,1.11122 2.98174,1.11122 1.29642,0 2.24092,-0.53707 0.94454,-0.55563 1.33346,-1.59273 l 5.75973,0.9445 q -0.77786,2.68543 -3.24102,4.27816 -2.44464,1.5927 -6.20421,1.5927 z m -4.05588,-12.92697 h 7.6673 q -0.1852,-1.75941 -1.14826,-2.74099 -0.96302,-1.00006 -2.64835,-1.00006 -1.70385,0 -2.70395,1.01858 -0.98155,1.0001 -1.16674,2.72247 z"
     id="text2"
     style="font-weight:800;font-size:10.0354px;line-height:1.25;font-family:Inter;-inkscape-font-specification:'Inter, Ultra-Bold';text-align:center;letter-spacing:0px;word-spacing:0px;text-anchor:middle;stroke-width:5.17213"
     aria-label="Granite.code" />
  <path
     d="m 39.376352,20.83331 q -1.968538,0 -3.456503,-0.850244 -1.487965,-0.859505 -2.319725,-2.439887 -0.83178,-1.580383 -0.83178,-3.75224 0,-2.255033 0.877989,-3.8354163 0.877988,-1.5896244 2.365934,-2.4214041 1.487965,-0.8410212 3.327118,-0.8410212 1.580364,0 2.86501,0.6007348 1.284627,0.5914931 2.097923,1.6543174 0.822537,1.0535814 0.988889,2.4213854 H 41.991815 Q 41.76077,10.510049 41.086101,10.038699 40.420693,9.5581072 39.394836,9.5581072 q -1.506449,0 -2.402921,1.0998098 -0.88723,1.09055 -0.88723,3.086813 0,2.014746 0.868747,3.123779 0.868746,1.099792 2.430646,1.099792 1.367802,0 2.107164,-0.656167 0.748604,-0.656186 0.776329,-1.77446 h -2.754109 v -2.393679 h 5.905614 v 1.811427 q 0,1.839153 -0.785571,3.160766 -0.776328,1.312352 -2.144132,2.014747 -1.367802,0.702375 -3.133021,0.702375 z m 7.938844,-0.184835 V 10.315952 h 3.133022 v 1.885362 h 0.1109 q 0.27727,-1.016615 0.91496,-1.515671 0.64694,-0.499076 1.4972,-0.499076 0.47135,0 0.91496,0.110902 v 2.809559 q -0.23105,-0.08318 -0.60998,-0.120144 -0.36967,-0.04621 -0.66541,-0.04621 -0.89647,0 -1.48796,0.573009 -0.58225,0.572991 -0.58225,1.497188 v 5.637603 z m 10.471152,0.184835 q -1.48795,0 -2.44911,-0.757826 -0.95193,-0.757845 -0.95193,-2.292019 0,-1.146 0.52679,-1.820669 0.5268,-0.674651 1.39554,-0.998132 0.87797,-0.323463 1.92233,-0.41588 1.31235,-0.110902 1.87612,-0.268031 0.57299,-0.166352 0.57299,-0.646925 v -0.03697 q 0,-0.536043 -0.37891,-0.822538 -0.36969,-0.295737 -1.02586,-0.295737 -0.67467,0 -1.10903,0.286495 -0.43438,0.286496 -0.56377,0.776329 l -2.92046,-0.378932 q 0.30498,-1.321594 1.48795,-2.144131 1.19222,-0.83178 3.13304,-0.83178 1.28462,0 2.31972,0.397416 1.04434,0.397397 1.65432,1.173725 0.61922,0.767087 0.61922,1.87612 v 7.014647 h -3.03138 v -1.450979 h -0.0832 q -0.8595,1.635814 -2.99439,1.635814 z m 0.97964,-2.13489 q 0.8133,0 1.37707,-0.480572 0.56375,-0.480592 0.56375,-1.247679 v -0.98889 q -0.27726,0.147869 -0.80406,0.249547 -0.52678,0.10166 -0.97964,0.175594 -1.48795,0.221803 -1.48795,1.229176 0,0.517559 0.36967,0.794813 0.37893,0.268011 0.96116,0.268011 z m 10.48964,-3.946317 v 5.896372 h -3.22544 V 10.315952 h 3.03136 l 0.0555,2.227327 q 0.40666,-1.072066 1.19221,-1.709768 0.78557,-0.646944 2.04249,-0.646944 1.61733,0 2.59698,1.062824 0.97965,1.062824 0.97965,2.818801 v 6.580283 h -3.22544 v -5.951822 q 0,-0.868747 -0.44363,-1.358581 -0.4436,-0.499056 -1.23841,-0.499056 -0.78557,0 -1.27539,0.508317 -0.48983,0.499056 -0.48983,1.40477 z m 8.79836,5.896372 V 10.315952 h 3.22544 v 10.332523 z m 1.60809,-11.5432154 q -0.68389,0 -1.17372,-0.4528471 -0.48982,-0.4528667 -0.48982,-1.0998103 0,-0.6469249 0.48982,-1.0997912 0.48983,-0.4528474 1.17372,-0.4528474 0.69316,0 1.18299,0.4528474 0.48981,0.4528663 0.48981,1.0997912 0,0.6469436 -0.48981,1.0998103 -0.48983,0.4528471 -1.18299,0.4528471 z m 9.32515,1.2106924 v 2.393679 h -1.85763 v 4.778097 q 0,0.804054 0.82253,0.804054 0.16636,0 0.46209,-0.03697 0.305,-0.04621 0.43439,-0.07393 l 0.41588,2.347452 q -0.54527,0.15711 -1.05359,0.21256 -0.50829,0.05545 -0.96116,0.05545 -1.64506,0 -2.49532,-0.767068 -0.85026,-0.776329 -0.85026,-2.255052 v -5.064591 h -1.36782 v -2.393679 h 1.36782 V 7.8576 h 3.22544 v 2.458352 z m 6.28455,10.5266 q -2.43065,0 -3.82618,-1.414012 -1.3863,-1.423272 -1.3863,-3.90935 0,-1.589625 0.61922,-2.791075 0.62846,-1.201451 1.77446,-1.866879 1.146,-0.674669 2.69866,-0.674669 1.45097,0 2.56925,0.609977 1.12753,0.600716 1.76522,1.783702 0.646942,1.173726 0.646942,2.874252 v 0.813296 h -6.903742 q 0.0462,1.118274 0.60995,1.682023 0.57301,0.554526 1.48797,0.554526 0.64694,0 1.11827,-0.268012 0.47135,-0.277272 0.66543,-0.794812 l 2.87425,0.471331 q -0.38817,1.340096 -1.61735,2.134909 -1.21993,0.794793 -3.09605,0.794793 z m -2.02399,-6.450878 h 3.82617 q -0.0924,-0.877989 -0.57301,-1.367822 -0.48057,-0.499057 -1.32159,-0.499057 -0.85026,0 -1.34934,0.508299 -0.48981,0.499074 -0.58223,1.35858 z m 10.850062,6.450878 q -0.73936,0 -1.24766,-0.489814 -0.49907,-0.499076 -0.49907,-1.229177 0,-0.739361 0.49907,-1.229195 0.5083,-0.499056 1.24766,-0.499056 0.73937,0 1.23844,0.499056 0.5083,0.489834 0.5083,1.229195 0,0.730101 -0.5083,1.229177 -0.49907,0.489814 -1.23844,0.489814 z m 9.19577,0 q -1.61735,0 -2.78184,-0.665408 -1.16448,-0.674669 -1.79294,-1.866878 -0.6192,-1.20147 -0.6192,-2.791076 0,-1.589625 0.6192,-2.791075 0.62846,-1.201451 1.79294,-1.866879 1.16449,-0.674669 2.78184,-0.674669 1.97778,0 3.24394,0.98889 1.27538,0.98889 1.51567,2.680174 l -2.97591,0.499075 q -0.15711,-0.813296 -0.60073,-1.25692 -0.43437,-0.443605 -1.14601,-0.443605 -0.92419,0 -1.43249,0.757845 -0.50832,0.748584 -0.50832,2.08868 0,1.330836 0.50832,2.107165 0.5083,0.767087 1.43249,0.767087 0.71164,0 1.15525,-0.462108 0.45286,-0.462089 0.60073,-1.293869 l 2.97591,0.480573 q -0.24029,1.737493 -1.50643,2.744866 -1.26616,0.998132 -3.26242,0.998132 z m 11.26596,0 q -1.61735,0 -2.78184,-0.665408 -1.16448,-0.674669 -1.79294,-1.866878 -0.61922,-1.20147 -0.61922,-2.791076 0,-1.589625 0.61922,-2.791075 0.62846,-1.201451 1.79294,-1.866879 1.16449,-0.674669 2.78184,-0.674669 1.61735,0 2.77259,0.674669 1.16449,0.665428 1.7837,1.866879 0.62844,1.20145 0.62844,2.791075 0,1.589606 -0.62844,2.791076 -0.61921,1.192209 -1.7837,1.866878 -1.15524,0.665408 -2.77259,0.665408 z m 0,-2.467594 q 0.9242,0 1.41401,-0.785571 0.48983,-0.794812 0.48983,-2.088681 0,-1.293887 -0.48983,-2.070197 -0.48981,-0.776328 -1.41401,-0.776328 -0.9242,0 -1.41403,0.776328 -0.48982,0.77631 -0.48982,2.070197 0,1.293869 0.48982,2.088681 0.48983,0.785571 1.41403,0.785571 z m 10.66522,2.421385 q -1.146,0 -2.08868,-0.591474 -0.94268,-0.600735 -1.4972,-1.77446 -0.55451,-1.182968 -0.55451,-2.938944 0,-1.811428 0.57299,-2.985153 0.58225,-1.173745 1.51569,-1.746735 0.94268,-0.57301 2.02399,-0.57301 0.82254,0 1.40479,0.286495 0.58223,0.277273 0.95192,0.720879 0.37891,0.434383 0.57299,0.896472 h 0.0739 V 6.877952 h 3.21622 v 13.770523 h -3.17925 v -1.672801 h -0.1109 q -0.30498,0.702394 -1.01662,1.266162 -0.70239,0.554507 -1.88536,0.554507 z m 1.09979,-2.513803 q 0.91496,0 1.43252,-0.757845 0.51754,-0.767087 0.51754,-2.03323 0,-1.284646 -0.51754,-2.033231 -0.50832,-0.748603 -1.43252,-0.748603 -0.93343,0 -1.43249,0.767087 -0.48983,0.757827 -0.48983,2.014747 0,1.256901 0.48983,2.023988 0.49906,0.767087 1.43249,0.767087 z m 12.04229,2.560012 q -2.43064,0 -3.82617,-1.414012 -1.38631,-1.423272 -1.38631,-3.90935 0,-1.589625 0.61922,-2.791075 0.62847,-1.201451 1.77447,-1.866879 1.14599,-0.674669 2.69865,-0.674669 1.45098,0 2.56926,0.609977 1.12753,0.600716 1.76521,1.783702 0.64695,1.173726 0.64695,2.874252 v 0.813296 h -6.90375 q 0.0462,1.118274 0.60996,1.682023 0.57301,0.554526 1.48797,0.554526 0.64694,0 1.11827,-0.268012 0.47135,-0.277272 0.66543,-0.794812 l 2.87425,0.471331 q -0.38817,1.340096 -1.61735,2.134909 -1.21994,0.794793 -3.09606,0.794793 z m -2.02398,-6.450878 h 3.82617 q -0.0924,-0.877989 -0.57301,-1.367822 -0.48057,-0.499057 -1.32159,-0.499057 -0.85026,0 -1.34934,0.508299 -0.48982,0.499074 -0.58223,1.35858 z"
     id="text2-5"
     style="font-weight:800;font-size:10.0354px;line-height:1.25;font-family:Inter;-inkscape-font-specification:'Inter, Ultra-Bold';text-align:center;letter-spacing:0px;word-spacing:0px;text-anchor:middle;stroke-width:2.58102;fill:#ffffff"
     aria-label="Granite.code" />
</svg>
