<?xml version="1.0" encoding="UTF-8" standalone="no"?>
<svg
   width="160"
   height="26"
   version="1.1"
   id="svg10"
   sodipodi:docname="page-logo.svg"
   inkscape:version="1.4 (e7c3feb100, 2024-10-09)"
   xmlns:inkscape="http://www.inkscape.org/namespaces/inkscape"
   xmlns:sodipodi="http://sodipodi.sourceforge.net/DTD/sodipodi-0.dtd"
   xmlns="http://www.w3.org/2000/svg"
   xmlns:svg="http://www.w3.org/2000/svg">
  <defs
     id="defs14" />
  <sodipodi:namedview
     id="namedview12"
     pagecolor="#505050"
     bordercolor="#ffffff"
     borderopacity="1"
     inkscape:pageshadow="0"
     inkscape:pageopacity="0"
     inkscape:pagecheckerboard="1"
     showgrid="false"
     width="149px"
     inkscape:current-layer="svg10"
     inkscape:showpageshadow="0"
     inkscape:deskcolor="#505050"
     inkscape:zoom="2.8284271"
     inkscape:cx="8.3085047"
     inkscape:cy="24.925514"
     inkscape:window-width="2207"
     inkscape:window-height="1077"
     inkscape:window-x="26"
     inkscape:window-y="23"
     inkscape:window-maximized="0" />
  <g
     id="g27"
     transform="matrix(0.18021548,0,0,0.18021548,-6.3724914,-6.2370972)">
    <path
       id="path3-3"
       d="m 117.1896,34.540008 h 15.5516 L 174.448,89.32374 117.1896,79.780007 V 34.540008"
       style="fill:#6148a7;fill-opacity:1;fill-rule:nonzero;stroke:none;stroke-width:0.133333" />
    <path
       id="path4-6"
       d="m 117.1896,96.520673 50.5424,7.647867 6.716,-14.8448 -57.2584,-9.543733 v 16.740666"
       style="fill:#1d1832;fill-opacity:1;fill-rule:nonzero;stroke:none;stroke-width:0.133333" />
    <path
       id="path5-7"
       d="m 117.1896,111.71854 18.73306,8.7084 H 157.836 l 20.14666,12.01707 -10.25066,-28.27547 -50.5424,-7.647867 v 15.197867"
       style="fill:#6148a7;fill-opacity:1;fill-rule:nonzero;stroke:none;stroke-width:0.133333" />
    <path
       id="path6"
       d="m 73.088532,167.52374 44.101068,-55.8052 18.73306,8.7084 H 157.836 L 177.98266,132.44401 158.076,170.18 141.47733,178.81174 H 90.019731 l -16.931199,-11.288"
       style="fill:#1d1832;fill-opacity:1;fill-rule:nonzero;stroke:none;stroke-width:0.133333" />
    <path
       id="path7"
       d="m 117.1896,34.540008 h -16.6688 l -23.359335,33.887999 -11.474533,1.752 -30.326533,60.129733 13.524,37.29266 24.204133,-0.0787 44.101068,-55.8052 V 96.03934 79.780007 34.540008"
       style="fill:#9778c3;fill-opacity:1;fill-rule:nonzero;stroke:none;stroke-width:0.133333" />
    <path
       id="path8"
       d="m 48.884399,167.6024 18.269733,11.20934 h 22.865599 l -16.931199,-11.288 -24.204133,0.0787"
       style="fill:#6148a7;fill-opacity:1;fill-rule:nonzero;stroke:none;stroke-width:0.133333" />
    <path
       id="path9"
       d="m 79.440131,135.14254 c -2.207866,-0.10947 -4.276133,-0.612 -6.104666,-1.9604 -1.862,-1.37347 -3.976133,-1.6584 -6.206267,-1.1844 -1.0104,0.21453 -2.004666,0.5052 -3.016666,0.70933 -2.8256,0.56934 -4.785467,-1.32546 -5.511467,-3.2724 -0.704133,-1.88906 -0.309333,-3.72186 0.4344,-5.50826 1.028133,-2.46987 2.725467,-4.49747 4.3692,-6.55787 2.252133,-2.824 4.952667,-5.11667 8.1756,-6.76147 2.2124,-1.1292 4.550933,-1.91453 7.055733,-1.90466 4.2724,0.0177 7.305733,2.32346 8.7328,6.2224 0.904666,2.47186 0.8692,4.99893 0.4124,7.53493 -0.4708,2.61453 -1.0624,5.20773 -2.132267,7.65413 -0.609333,1.39427 -1.445333,2.65987 -2.588,3.69427 -1.025466,0.9292 -2.231733,1.376 -3.6208,1.3344"
       style="fill:#1d1832;fill-opacity:1;fill-rule:nonzero;stroke:none;stroke-width:0.133333" />
    <path
       id="path10"
       d="m 84.691198,88.99094 c -0.09533,2.8636 -0.583867,5.824 -2.4204,8.401066 -1.328133,1.864 -2.971333,3.336934 -5.259867,3.866664 -1.524533,0.35307 -3.055733,0.3568 -4.404133,-0.62866 -1.264133,-0.924004 -1.674,-2.306804 -1.733333,-3.754137 -0.243733,-5.953733 2.097333,-10.831866 6.385866,-14.8412 0.825067,-0.771333 1.804267,-1.311466 2.9828,-1.430666 1.187067,-0.1204 2.102667,0.314 2.753734,1.266666 0.872933,1.278134 1.227066,2.757734 1.4796,4.256667 0.148533,0.876666 0.216266,1.765733 0.215733,2.8636"
       style="fill:#1d1832;fill-opacity:1;fill-rule:nonzero;stroke:none;stroke-width:0.133333" />
    <path
       id="path11"
       d="m 101.9448,88.167473 c -0.008,2.9792 -0.9432,5.709467 -2.342669,8.289067 -1.25,2.304133 -2.823467,4.3656 -4.942267,5.95947 -1.512,1.13746 -3.161466,1.7604 -5.093733,1.36506 -2.0744,-0.42453 -3.4536,-1.97866 -3.638,-4.06413 -0.2052,-2.323867 0.518267,-4.408267 1.673467,-6.3468 2.139066,-3.5896 4.960933,-6.548534 8.490133,-8.8068 0.8312,-0.531733 1.715067,-0.945333 2.738933,-0.95 1.360536,-0.0063 2.289596,0.6344 2.766666,1.919333 0.31627,0.852 0.38387,1.734267 0.34747,2.6348"
       style="fill:#1d1832;fill-opacity:1;fill-rule:nonzero;stroke:none;stroke-width:0.133333" />
    <path
       id="path12"
       d="m 68.243732,104.22734 c -0.01827,2.47813 -0.554667,4.8688 -2.215067,6.872 -1.891733,2.28173 -4.328667,3.46507 -7.320266,3.26187 -1.623467,-0.1104 -2.680267,-1.1244 -3.238667,-2.59 -0.784267,-2.0584 -0.763467,-4.20054 -0.3208,-6.3204 0.6084,-2.91454 1.821333,-5.582804 3.6,-7.974404 0.586,-0.7876 1.291733,-1.490133 2.191733,-1.9276 1.5588,-0.757866 3.116133,-0.316133 4.5072,1.153067 1.988533,2.100533 2.81,4.618267 2.795867,7.525467"
       style="fill:#1d1832;fill-opacity:1;fill-rule:nonzero;stroke:none;stroke-width:0.133333" />
    <path
       id="path13"
       d="m 106.32133,104.81027 c 0.0193,0.77387 -0.11973,1.53067 -0.32187,2.26814 -0.78746,2.8756 -1.874,5.61413 -3.788,7.95266 -1.38546,1.6932 -2.895329,3.2572 -4.877062,4.2588 -3.268267,1.65267 -6.073467,0.0333 -7.1224,-2.48013 -0.610934,-1.46307 -0.319867,-2.94907 0.2052,-4.38387 0.602533,-1.648 1.613466,-3.05 2.740666,-4.3704 1.803067,-2.11186 3.911467,-3.84426 6.4328,-5.03853 1.047336,-0.49573 2.118666,-0.93173 3.272936,-1.13333 2.21453,-0.3864 3.46506,0.66613 3.45773,2.92666"
       style="fill:#1d1832;fill-opacity:1;fill-rule:nonzero;stroke:none;stroke-width:0.133333" />
  </g>
  <path
     d="m 39.376352,20.83331 q -1.968538,0 -3.456503,-0.850244 -1.487965,-0.859505 -2.319725,-2.439887 -0.83178,-1.580383 -0.83178,-3.75224 0,-2.255033 0.877989,-3.8354163 0.877988,-1.5896244 2.365934,-2.4214041 1.487965,-0.8410212 3.327118,-0.8410212 1.580364,0 2.86501,0.6007348 1.284627,0.5914931 2.097923,1.6543174 0.822537,1.0535814 0.988889,2.4213854 H 41.991815 Q 41.76077,10.510049 41.086101,10.038699 40.420693,9.5581072 39.394836,9.5581072 q -1.506449,0 -2.402921,1.0998098 -0.88723,1.09055 -0.88723,3.086813 0,2.014746 0.868747,3.123779 0.868746,1.099792 2.430646,1.099792 1.367802,0 2.107164,-0.656167 0.748604,-0.656186 0.776329,-1.77446 h -2.754109 v -2.393679 h 5.905614 v 1.811427 q 0,1.839153 -0.785571,3.160766 -0.776328,1.312352 -2.144132,2.014747 -1.367802,0.702375 -3.133021,0.702375 z m 7.938844,-0.184835 V 10.315952 h 3.133022 v 1.885362 h 0.1109 q 0.27727,-1.016615 0.91496,-1.515671 0.64694,-0.499076 1.4972,-0.499076 0.47135,0 0.91496,0.110902 v 2.809559 q -0.23105,-0.08318 -0.60998,-0.120144 -0.36967,-0.04621 -0.66541,-0.04621 -0.89647,0 -1.48796,0.573009 -0.58225,0.572991 -0.58225,1.497188 v 5.637603 z m 10.471152,0.184835 q -1.48795,0 -2.44911,-0.757826 -0.95193,-0.757845 -0.95193,-2.292019 0,-1.146 0.52679,-1.820669 0.5268,-0.674651 1.39554,-0.998132 0.87797,-0.323463 1.92233,-0.41588 1.31235,-0.110902 1.87612,-0.268031 0.57299,-0.166352 0.57299,-0.646925 v -0.03697 q 0,-0.536043 -0.37891,-0.822538 -0.36969,-0.295737 -1.02586,-0.295737 -0.67467,0 -1.10903,0.286495 -0.43438,0.286496 -0.56377,0.776329 l -2.92046,-0.378932 q 0.30498,-1.321594 1.48795,-2.144131 1.19222,-0.83178 3.13304,-0.83178 1.28462,0 2.31972,0.397416 1.04434,0.397397 1.65432,1.173725 0.61922,0.767087 0.61922,1.87612 v 7.014647 h -3.03138 v -1.450979 h -0.0832 q -0.8595,1.635814 -2.99439,1.635814 z m 0.97964,-2.13489 q 0.8133,0 1.37707,-0.480572 0.56375,-0.480592 0.56375,-1.247679 v -0.98889 q -0.27726,0.147869 -0.80406,0.249547 -0.52678,0.10166 -0.97964,0.175594 -1.48795,0.221803 -1.48795,1.229176 0,0.517559 0.36967,0.794813 0.37893,0.268011 0.96116,0.268011 z m 10.48964,-3.946317 v 5.896372 h -3.22544 V 10.315952 h 3.03136 l 0.0555,2.227327 q 0.40666,-1.072066 1.19221,-1.709768 0.78557,-0.646944 2.04249,-0.646944 1.61733,0 2.59698,1.062824 0.97965,1.062824 0.97965,2.818801 v 6.580283 h -3.22544 v -5.951822 q 0,-0.868747 -0.44363,-1.358581 -0.4436,-0.499056 -1.23841,-0.499056 -0.78557,0 -1.27539,0.508317 -0.48983,0.499056 -0.48983,1.40477 z m 8.79836,5.896372 V 10.315952 h 3.22544 v 10.332523 z m 1.60809,-11.5432154 q -0.68389,0 -1.17372,-0.4528471 -0.48982,-0.4528667 -0.48982,-1.0998103 0,-0.6469249 0.48982,-1.0997912 0.48983,-0.4528474 1.17372,-0.4528474 0.69316,0 1.18299,0.4528474 0.48981,0.4528663 0.48981,1.0997912 0,0.6469436 -0.48981,1.0998103 -0.48983,0.4528471 -1.18299,0.4528471 z m 9.32515,1.2106924 v 2.393679 h -1.85763 v 4.778097 q 0,0.804054 0.82253,0.804054 0.16636,0 0.46209,-0.03697 0.305,-0.04621 0.43439,-0.07393 l 0.41588,2.347452 q -0.54527,0.15711 -1.05359,0.21256 -0.50829,0.05545 -0.96116,0.05545 -1.64506,0 -2.49532,-0.767068 -0.85026,-0.776329 -0.85026,-2.255052 v -5.064591 h -1.36782 v -2.393679 h 1.36782 V 7.8576 h 3.22544 v 2.458352 z m 6.28455,10.5266 q -2.43065,0 -3.82618,-1.414012 -1.3863,-1.423272 -1.3863,-3.90935 0,-1.589625 0.61922,-2.791075 0.62846,-1.201451 1.77446,-1.866879 1.146,-0.674669 2.69866,-0.674669 1.45097,0 2.56925,0.609977 1.12753,0.600716 1.76522,1.783702 0.646942,1.173726 0.646942,2.874252 v 0.813296 h -6.903742 q 0.0462,1.118274 0.60995,1.682023 0.57301,0.554526 1.48797,0.554526 0.64694,0 1.11827,-0.268012 0.47135,-0.277272 0.66543,-0.794812 l 2.87425,0.471331 q -0.38817,1.340096 -1.61735,2.134909 -1.21993,0.794793 -3.09605,0.794793 z m -2.02399,-6.450878 h 3.82617 q -0.0924,-0.877989 -0.57301,-1.367822 -0.48057,-0.499057 -1.32159,-0.499057 -0.85026,0 -1.34934,0.508299 -0.48981,0.499074 -0.58223,1.35858 z m 10.850062,6.450878 q -0.73936,0 -1.24766,-0.489814 -0.49907,-0.499076 -0.49907,-1.229177 0,-0.739361 0.49907,-1.229195 0.5083,-0.499056 1.24766,-0.499056 0.73937,0 1.23844,0.499056 0.5083,0.489834 0.5083,1.229195 0,0.730101 -0.5083,1.229177 -0.49907,0.489814 -1.23844,0.489814 z m 9.19577,0 q -1.61735,0 -2.78184,-0.665408 -1.16448,-0.674669 -1.79294,-1.866878 -0.6192,-1.20147 -0.6192,-2.791076 0,-1.589625 0.6192,-2.791075 0.62846,-1.201451 1.79294,-1.866879 1.16449,-0.674669 2.78184,-0.674669 1.97778,0 3.24394,0.98889 1.27538,0.98889 1.51567,2.680174 l -2.97591,0.499075 q -0.15711,-0.813296 -0.60073,-1.25692 -0.43437,-0.443605 -1.14601,-0.443605 -0.92419,0 -1.43249,0.757845 -0.50832,0.748584 -0.50832,2.08868 0,1.330836 0.50832,2.107165 0.5083,0.767087 1.43249,0.767087 0.71164,0 1.15525,-0.462108 0.45286,-0.462089 0.60073,-1.293869 l 2.97591,0.480573 q -0.24029,1.737493 -1.50643,2.744866 -1.26616,0.998132 -3.26242,0.998132 z m 11.26596,0 q -1.61735,0 -2.78184,-0.665408 -1.16448,-0.674669 -1.79294,-1.866878 -0.61922,-1.20147 -0.61922,-2.791076 0,-1.589625 0.61922,-2.791075 0.62846,-1.201451 1.79294,-1.866879 1.16449,-0.674669 2.78184,-0.674669 1.61735,0 2.77259,0.674669 1.16449,0.665428 1.7837,1.866879 0.62844,1.20145 0.62844,2.791075 0,1.589606 -0.62844,2.791076 -0.61921,1.192209 -1.7837,1.866878 -1.15524,0.665408 -2.77259,0.665408 z m 0,-2.467594 q 0.9242,0 1.41401,-0.785571 0.48983,-0.794812 0.48983,-2.088681 0,-1.293887 -0.48983,-2.070197 -0.48981,-0.776328 -1.41401,-0.776328 -0.9242,0 -1.41403,0.776328 -0.48982,0.77631 -0.48982,2.070197 0,1.293869 0.48982,2.088681 0.48983,0.785571 1.41403,0.785571 z m 10.66522,2.421385 q -1.146,0 -2.08868,-0.591474 -0.94268,-0.600735 -1.4972,-1.77446 -0.55451,-1.182968 -0.55451,-2.938944 0,-1.811428 0.57299,-2.985153 0.58225,-1.173745 1.51569,-1.746735 0.94268,-0.57301 2.02399,-0.57301 0.82254,0 1.40479,0.286495 0.58223,0.277273 0.95192,0.720879 0.37891,0.434383 0.57299,0.896472 h 0.0739 V 6.877952 h 3.21622 v 13.770523 h -3.17925 v -1.672801 h -0.1109 q -0.30498,0.702394 -1.01662,1.266162 -0.70239,0.554507 -1.88536,0.554507 z m 1.09979,-2.513803 q 0.91496,0 1.43252,-0.757845 0.51754,-0.767087 0.51754,-2.03323 0,-1.284646 -0.51754,-2.033231 -0.50832,-0.748603 -1.43252,-0.748603 -0.93343,0 -1.43249,0.767087 -0.48983,0.757827 -0.48983,2.014747 0,1.256901 0.48983,2.023988 0.49906,0.767087 1.43249,0.767087 z m 12.04229,2.560012 q -2.43064,0 -3.82617,-1.414012 -1.38631,-1.423272 -1.38631,-3.90935 0,-1.589625 0.61922,-2.791075 0.62847,-1.201451 1.77447,-1.866879 1.14599,-0.674669 2.69865,-0.674669 1.45098,0 2.56926,0.609977 1.12753,0.600716 1.76521,1.783702 0.64695,1.173726 0.64695,2.874252 v 0.813296 h -6.90375 q 0.0462,1.118274 0.60996,1.682023 0.57301,0.554526 1.48797,0.554526 0.64694,0 1.11827,-0.268012 0.47135,-0.277272 0.66543,-0.794812 l 2.87425,0.471331 q -0.38817,1.340096 -1.61735,2.134909 -1.21994,0.794793 -3.09606,0.794793 z m -2.02398,-6.450878 h 3.82617 q -0.0924,-0.877989 -0.57301,-1.367822 -0.48057,-0.499057 -1.32159,-0.499057 -0.85026,0 -1.34934,0.508299 -0.48982,0.499074 -0.58223,1.35858 z"
     id="text2"
     style="font-weight:800;font-size:10.0354px;line-height:1.25;font-family:Inter;-inkscape-font-specification:'Inter, Ultra-Bold';text-align:center;letter-spacing:0px;word-spacing:0px;text-anchor:middle;stroke-width:2.58102"
     aria-label="Granite.code" />
</svg>
